<svg width="190" height="40" viewBox="0 0 190 40" fill="none" xmlns="http://www.w3.org/2000/svg">
<path d="M67.7942 31.3397L68.4548 31.3697C68.675 31.3697 68.8953 31.3797 69.1155 31.3797C69.3107 31.3797 69.5058 31.3797 69.701 31.3697C69.8962 31.3697 70.0914 31.3547 70.2866 31.3397V31.4496C70.0313 31.4846 69.8161 31.5595 69.651 31.6694C69.4858 31.7792 69.4007 31.979 69.4007 32.2637C69.4007 32.4185 69.4258 32.6682 69.4708 33.0128C69.5158 33.3575 69.5759 33.737 69.646 34.1466C69.716 34.5561 69.7911 34.9657 69.8662 35.3752C69.9413 35.7847 70.0163 36.1343 70.0814 36.424C70.1114 36.5489 70.1464 36.6538 70.1815 36.7437C70.2165 36.8336 70.2716 36.9185 70.3366 36.9884C70.4017 37.0583 70.5018 37.1182 70.6219 37.1632C70.742 37.2081 70.9072 37.2431 71.1074 37.2681V37.3779C70.8621 37.3679 70.6169 37.358 70.3767 37.348C70.1364 37.343 69.8912 37.338 69.646 37.338C69.4007 37.338 69.1855 37.338 68.9603 37.348C68.7351 37.353 68.5099 37.363 68.2747 37.3779V37.2681C68.4048 37.2481 68.5249 37.2281 68.645 37.1981C68.7601 37.1682 68.8652 37.1282 68.9553 37.0733C69.0454 37.0183 69.1155 36.9434 69.1605 36.8485C69.2106 36.7536 69.2356 36.6288 69.2356 36.469C69.2356 36.394 69.2356 36.2992 69.2256 36.1743C69.2256 36.0494 69.2005 35.9096 69.1705 35.7498L68.5349 32.0489H68.5149C68.3447 32.4884 68.1646 32.9279 67.9744 33.3575C67.7842 33.787 67.599 34.2215 67.4139 34.656C67.2287 35.0905 67.0485 35.53 66.8733 35.9745C66.6982 36.419 66.538 36.8735 66.3979 37.338H66.3779C66.0826 36.3891 65.7523 35.4751 65.3819 34.5961C65.0116 33.7171 64.6162 32.838 64.1908 31.959H64.1708C64.1207 32.2937 64.0707 32.6682 64.0256 33.0778C63.9756 33.4873 63.9306 33.8869 63.8905 34.2764C63.8505 34.666 63.8204 35.0206 63.7954 35.3402C63.7704 35.6599 63.7604 35.8996 63.7604 36.0594C63.7604 36.2592 63.7754 36.434 63.8004 36.5838C63.8305 36.7287 63.8805 36.8535 63.9606 36.9484C64.0407 37.0483 64.1508 37.1182 64.2859 37.1682C64.421 37.2181 64.6012 37.2481 64.8264 37.2581V37.3679C64.5712 37.358 64.3159 37.348 64.0707 37.338C63.8255 37.333 63.5752 37.328 63.315 37.328C63.1248 37.328 62.9346 37.328 62.7494 37.338C62.5643 37.343 62.3741 37.353 62.1839 37.3679V37.2581C62.314 37.2481 62.4391 37.2231 62.5643 37.1832C62.6894 37.1482 62.8045 37.0983 62.9096 37.0333C63.0147 36.9684 63.0998 36.8935 63.1698 36.8036C63.2399 36.7137 63.2849 36.6088 63.305 36.4889C63.34 36.2742 63.375 36.0494 63.4051 35.8147C63.4351 35.58 63.4651 35.3452 63.4951 35.1105L63.9356 31.8442C63.8054 31.7393 63.6553 31.6544 63.4751 31.5895C63.295 31.5245 63.1198 31.4746 62.9396 31.4446V31.3347C63.2049 31.3447 63.4651 31.3547 63.7254 31.3647C63.9856 31.3647 64.2458 31.3747 64.5111 31.3747C64.7013 31.3747 64.8915 31.3747 65.0766 31.3647C65.2618 31.3547 65.452 31.3497 65.6422 31.3347V31.4446C65.5271 31.4746 65.417 31.5245 65.3219 31.5944C65.2218 31.6644 65.1767 31.7742 65.1767 31.9291C65.1767 32.034 65.1917 32.1338 65.2268 32.2337C65.2618 32.3336 65.2968 32.4335 65.3419 32.5384L66.6381 35.7148C66.9484 35.0655 67.2487 34.4163 67.529 33.762C67.8092 33.1077 68.0695 32.4435 68.2997 31.7543C68.2346 31.6744 68.1546 31.6094 68.0595 31.5595C67.9644 31.5095 67.8743 31.4696 67.7742 31.4396V31.3297L67.7942 31.3397Z" fill="#355047"/>
<path d="M71.6479 35.4152C71.6479 35.7348 71.6879 35.9945 71.773 36.2043C71.8581 36.414 71.9582 36.5789 72.0833 36.6987C72.2084 36.8236 72.3435 36.9085 72.4887 36.9534C72.6338 37.0034 72.7639 37.0284 72.889 37.0284C73.1443 37.0284 73.3795 36.9884 73.5897 36.9035C73.7999 36.8186 73.9901 36.6887 74.1703 36.5139L74.3254 36.6588C74.0752 36.9285 73.8149 37.1332 73.5547 37.2731C73.2894 37.4129 72.9741 37.4828 72.6088 37.4828C72.3435 37.4828 72.1083 37.4329 71.8981 37.328C71.6879 37.2231 71.5127 37.0883 71.3626 36.9135C71.2175 36.7437 71.1023 36.5439 71.0273 36.3241C70.9522 36.1044 70.9122 35.8796 70.9122 35.6449C70.9122 35.4102 70.9522 35.1854 71.0273 34.9657C71.1023 34.7459 71.2175 34.5511 71.3626 34.3763C71.5077 34.2065 71.6879 34.0667 71.8981 33.9618C72.1083 33.8569 72.3435 33.807 72.6088 33.807C73.0942 33.807 73.4846 33.9368 73.7749 34.2015C74.0702 34.4662 74.2503 34.8658 74.3154 35.4052H71.6479V35.4152ZM73.4446 35.1405C73.4245 34.9757 73.3995 34.8258 73.3695 34.696C73.3395 34.5661 73.2894 34.4562 73.2244 34.3663C73.1593 34.2764 73.0692 34.2115 72.9591 34.1666C72.849 34.1216 72.7089 34.0966 72.5387 34.0966C72.4086 34.0966 72.2935 34.1266 72.1834 34.1915C72.0783 34.2565 71.9832 34.3364 71.9081 34.4413C71.833 34.5461 71.773 34.656 71.7329 34.7809C71.6929 34.9057 71.6729 35.0256 71.6729 35.1455H73.4496H73.4446V35.1405Z" fill="#355047"/>
<path d="M78.4243 36.419C78.4243 36.5788 78.4343 36.7087 78.4493 36.8136C78.4693 36.9185 78.5044 37.0034 78.5594 37.0683C78.6145 37.1332 78.6946 37.1782 78.7947 37.2031C78.8947 37.2281 79.0299 37.2381 79.195 37.2381V37.348C78.9498 37.348 78.7046 37.348 78.4643 37.358C78.2241 37.363 77.9739 37.3729 77.7136 37.3879V37.0483C77.5735 37.1732 77.3733 37.278 77.1181 37.363C76.8628 37.4529 76.5876 37.4978 76.2923 37.4978C76.042 37.4978 75.8118 37.4529 75.6066 37.358C75.4014 37.2631 75.2263 37.1332 75.0811 36.9734C74.936 36.8136 74.8259 36.6238 74.7458 36.409C74.6657 36.1943 74.6257 35.9695 74.6257 35.7398C74.6257 35.4651 74.6757 35.2104 74.7708 34.9756C74.8659 34.7409 75.0061 34.5411 75.1812 34.3713C75.3564 34.2015 75.5616 34.0667 75.7968 33.9718C76.032 33.8769 76.2873 33.8319 76.5625 33.8319C76.7627 33.8319 76.9629 33.8669 77.1531 33.9418C77.3433 34.0167 77.5234 34.1016 77.6936 34.2065V31.8292C77.6936 31.6843 77.6836 31.5645 77.6636 31.4696C77.6436 31.3747 77.5985 31.3048 77.5385 31.2498C77.4784 31.1949 77.3933 31.1549 77.2932 31.13C77.1931 31.105 77.063 31.085 76.9129 31.075V30.9652L78.4143 30.8203V36.429L78.4243 36.419ZM77.7086 34.8108C77.6886 34.7309 77.6436 34.646 77.5735 34.5561C77.5034 34.4662 77.4133 34.3863 77.3132 34.3164C77.2081 34.2465 77.093 34.1865 76.9579 34.1416C76.8228 34.0966 76.6927 34.0717 76.5575 34.0717C76.3473 34.0717 76.1722 34.1166 76.027 34.2115C75.8819 34.3014 75.7668 34.4263 75.6717 34.5761C75.5816 34.7259 75.5115 34.8957 75.4715 35.0805C75.4265 35.2653 75.4064 35.4501 75.4064 35.6349C75.4064 35.8197 75.4265 36.0045 75.4715 36.1893C75.5115 36.3741 75.5816 36.5439 75.6717 36.6937C75.7618 36.8435 75.8819 36.9634 76.027 37.0583C76.1722 37.1482 76.3473 37.1981 76.5575 37.1981C76.6977 37.1981 76.8328 37.1782 76.9629 37.1332C77.093 37.0883 77.2081 37.0383 77.3132 36.9734C77.4183 36.9085 77.5034 36.8385 77.5735 36.7686C77.6436 36.6937 77.6886 36.6288 77.7086 36.5738V34.8108Z" fill="#355047"/>
<path d="M80.0108 35.0606C80.0108 34.9157 80.0108 34.7859 79.9958 34.671C79.9858 34.5561 79.9607 34.4612 79.9107 34.3863C79.8606 34.3114 79.7956 34.2465 79.7055 34.1965C79.6154 34.1466 79.4853 34.1116 79.3301 34.0966V33.9668L80.7265 33.8769V36.5739C80.7265 36.7287 80.7365 36.8485 80.7615 36.9384C80.7865 37.0283 80.8266 37.0933 80.8866 37.1382C80.9467 37.1832 81.0217 37.2181 81.1118 37.2331C81.2019 37.2531 81.317 37.2631 81.4521 37.2681V37.3779C81.2369 37.368 81.0217 37.358 80.8015 37.348C80.5863 37.343 80.3661 37.338 80.1559 37.338C80.0158 37.338 79.8757 37.338 79.7405 37.348C79.6054 37.353 79.4653 37.363 79.3251 37.3779V37.2681C79.4503 37.2631 79.5503 37.2481 79.6354 37.2331C79.7205 37.2131 79.7906 37.1832 79.8456 37.1382C79.9007 37.0933 79.9407 37.0233 79.9657 36.9384C79.9908 36.8485 80.0008 36.7287 80.0008 36.5739V35.0606H80.0108ZM80.276 31.1749C80.4112 31.1749 80.5263 31.2249 80.6214 31.3248C80.7165 31.4246 80.7665 31.5445 80.7665 31.6794C80.7665 31.8142 80.7165 31.9341 80.6214 32.034C80.5263 32.1338 80.4112 32.1838 80.276 32.1838C80.1409 32.1838 80.0258 32.1338 79.9307 32.034C79.8356 31.9341 79.7856 31.8142 79.7856 31.6794C79.7856 31.5445 79.8306 31.4246 79.9307 31.3248C80.0258 31.2249 80.1409 31.1749 80.276 31.1749Z" fill="#355047"/>
<path d="M81.8776 34.666C81.9276 34.4762 81.9977 34.3264 82.0827 34.2115C82.1678 34.0967 82.2729 34.0117 82.393 33.9568C82.5082 33.8969 82.6433 33.8619 82.7884 33.8469C82.9336 33.8319 83.0937 33.822 83.2589 33.822C83.424 33.822 83.5742 33.8369 83.7343 33.8719C83.8895 33.9069 84.0296 33.9618 84.1547 34.0417C84.2798 34.1216 84.3799 34.2265 84.46 34.3564C84.5351 34.4862 84.5751 34.646 84.5751 34.8358V36.5339C84.5751 36.6488 84.6051 36.7537 84.6652 36.8436C84.7253 36.9335 84.8203 36.9784 84.9505 36.9784C85.0806 36.9784 85.1807 36.9434 85.2758 36.8735C85.3709 36.8036 85.4609 36.7337 85.546 36.6688L85.6361 36.7686C85.5761 36.8286 85.501 36.9035 85.4209 36.9834C85.3358 37.0683 85.2508 37.1432 85.1607 37.2231C85.0706 37.303 84.9755 37.363 84.8804 37.4179C84.7853 37.4679 84.6902 37.4978 84.6001 37.4978C84.5401 37.4978 84.475 37.4778 84.4049 37.4379C84.3399 37.3979 84.2698 37.353 84.2048 37.2931C84.1397 37.2331 84.0796 37.1782 84.0246 37.1183C83.9695 37.0583 83.9195 37.0034 83.8795 36.9634C83.6843 37.0983 83.4641 37.2181 83.2188 37.333C82.9736 37.4429 82.7334 37.4978 82.5032 37.4978C82.373 37.4978 82.2529 37.4778 82.1328 37.4329C82.0127 37.3879 81.9076 37.328 81.8175 37.2481C81.7274 37.1682 81.6523 37.0733 81.5973 36.9634C81.5422 36.8536 81.5122 36.7287 81.5122 36.5888C81.5122 36.3391 81.5823 36.1394 81.7224 35.9895C81.8625 35.8397 82.0477 35.7248 82.2679 35.6449C82.4931 35.565 82.7484 35.5101 83.0337 35.4851C83.3189 35.4551 83.6042 35.4401 83.8945 35.4351V34.7359C83.8945 34.5112 83.8244 34.3364 83.6843 34.2115C83.5441 34.0867 83.364 34.0267 83.1488 34.0267C82.9886 34.0267 82.8635 34.1066 82.7734 34.2665C82.6833 34.4263 82.6333 34.6061 82.6333 34.8059L81.8776 34.666ZM83.8744 35.7848C83.6743 35.7298 83.4691 35.6998 83.2589 35.6998C83.1438 35.6998 83.0236 35.7148 82.9085 35.7398C82.7934 35.7648 82.6883 35.8097 82.5982 35.8747C82.5081 35.9346 82.4331 36.0145 82.373 36.1094C82.313 36.2043 82.2879 36.3191 82.2879 36.454C82.2879 36.6638 82.358 36.8086 82.5032 36.8985C82.6483 36.9884 82.8084 37.0333 82.9836 37.0333C83.1788 37.0333 83.359 36.9934 83.5241 36.9135C83.6843 36.8336 83.8044 36.7686 83.8795 36.7137V35.7848H83.8744Z" fill="#355047"/>
<path d="M85.2508 34.2515V34.1066C85.4459 34.1016 85.6161 34.0517 85.7562 33.9618C85.8964 33.8719 86.0215 33.752 86.1266 33.6122C86.2317 33.4724 86.3168 33.3175 86.3868 33.1427C86.4569 32.9729 86.522 32.8081 86.577 32.6483H86.7071V33.9818H87.9683V34.2565H86.7071V36.3941C86.7071 36.474 86.7071 36.5539 86.7222 36.6288C86.7322 36.7037 86.7472 36.7736 86.7772 36.8336C86.8022 36.8935 86.8423 36.9435 86.8973 36.9784C86.9474 37.0134 87.0224 37.0334 87.1125 37.0334C87.2977 37.0334 87.4478 36.9934 87.573 36.9135C87.6931 36.8336 87.8182 36.7337 87.9383 36.6088L88.0234 36.6987C87.9183 36.7886 87.8182 36.8835 87.7181 36.9784C87.618 37.0733 87.5179 37.1582 87.4078 37.2331C87.3027 37.308 87.1826 37.373 87.0575 37.4179C86.9324 37.4629 86.7972 37.4878 86.6471 37.4878C86.3918 37.4878 86.2167 37.4079 86.1216 37.2531C86.0315 37.0983 85.9815 36.9135 85.9815 36.6987V34.2465H85.2458H85.2508V34.2515Z" fill="#355047"/>
<path d="M88.7991 35.0606C88.7991 34.9157 88.7991 34.7859 88.7841 34.671C88.7741 34.5561 88.7491 34.4612 88.699 34.3863C88.649 34.3114 88.5839 34.2465 88.4938 34.1965C88.4037 34.1466 88.2736 34.1116 88.1185 34.0966V33.9668L89.5148 33.8769V36.5739C89.5148 36.7287 89.5248 36.8485 89.5498 36.9384C89.5748 37.0283 89.6149 37.0933 89.6749 37.1382C89.735 37.1832 89.8101 37.2181 89.9002 37.2331C89.9902 37.2531 90.1054 37.2631 90.2405 37.2681V37.3779C90.0253 37.368 89.8101 37.358 89.5899 37.348C89.3747 37.343 89.1545 37.338 88.9443 37.338C88.8041 37.338 88.664 37.338 88.5289 37.348C88.3937 37.353 88.2536 37.363 88.1135 37.3779V37.2681C88.2386 37.2631 88.3387 37.2481 88.4238 37.2331C88.5088 37.2131 88.5789 37.1832 88.634 37.1382C88.689 37.0933 88.729 37.0233 88.7541 36.9384C88.7791 36.8485 88.7891 36.7287 88.7891 36.5739V35.0606H88.7991ZM89.0644 31.1749C89.1995 31.1749 89.3146 31.2249 89.4097 31.3248C89.5048 31.4246 89.5548 31.5445 89.5548 31.6794C89.5548 31.8142 89.5048 31.9341 89.4097 32.034C89.3146 32.1338 89.1995 32.1838 89.0644 32.1838C88.9292 32.1838 88.8141 32.1338 88.719 32.034C88.624 31.9341 88.5739 31.8142 88.5739 31.6794C88.5739 31.5445 88.6189 31.4246 88.719 31.3248C88.8141 31.2249 88.9292 31.1749 89.0644 31.1749Z" fill="#355047"/>
<path d="M90.4106 34.0767L91.7519 33.8769V34.3613C91.9171 34.2315 92.1073 34.1116 92.3225 33.9918C92.5377 33.8769 92.7429 33.817 92.938 33.817C93.1082 33.817 93.2734 33.8369 93.4285 33.8819C93.5836 33.9268 93.7238 33.9968 93.8489 34.0916C93.969 34.1915 94.0691 34.3214 94.1442 34.4862C94.2193 34.651 94.2543 34.8558 94.2543 35.1005V36.7137C94.2543 36.9135 94.3093 37.0483 94.4194 37.1132C94.5295 37.1782 94.6897 37.2281 94.8999 37.2631V37.373C94.7197 37.363 94.5295 37.353 94.3294 37.343C94.1292 37.338 93.924 37.333 93.7138 37.333C93.5736 37.333 93.4385 37.333 93.3034 37.343C93.1733 37.348 93.0431 37.358 92.923 37.373V37.2631C93.1182 37.2281 93.2734 37.1782 93.3785 37.1132C93.4836 37.0483 93.5386 36.9135 93.5386 36.7137V35.2354C93.5386 34.9257 93.4735 34.681 93.3384 34.5112C93.2083 34.3414 92.9931 34.2565 92.6978 34.2565C92.5927 34.2565 92.4876 34.2714 92.3775 34.3014C92.2674 34.3314 92.1673 34.3713 92.0722 34.4263C91.9821 34.4762 91.9021 34.5361 91.842 34.5961C91.7819 34.656 91.7519 34.7159 91.7519 34.7709V36.7187C91.7519 36.9185 91.812 37.0533 91.9271 37.1182C92.0422 37.1832 92.2174 37.2331 92.4526 37.2681V37.3779C92.2424 37.368 92.0372 37.358 91.832 37.348C91.6268 37.343 91.4216 37.338 91.2114 37.338C91.0713 37.338 90.9361 37.338 90.801 37.348C90.6709 37.353 90.5308 37.363 90.3906 37.3779V37.2681C90.6008 37.2331 90.756 37.1832 90.8711 37.1182C90.9812 37.0533 91.0362 36.9185 91.0362 36.7187V34.5911C91.0362 34.4063 90.9712 34.2964 90.8461 34.2515C90.7209 34.2065 90.5758 34.1865 90.4106 34.1865V34.0767Z" fill="#355047"/>
<path d="M98.7686 34.7109C98.7936 34.621 98.8036 34.5162 98.8036 34.4063C98.8036 34.3414 98.7736 34.2864 98.7135 34.2564C98.6535 34.2215 98.5784 34.2065 98.4933 34.2065C98.4433 34.2065 98.3882 34.2215 98.3181 34.2515C98.2531 34.2814 98.198 34.3064 98.163 34.3264C98.213 34.4562 98.2481 34.5761 98.2781 34.696C98.3031 34.8108 98.3181 34.9407 98.3181 35.0805C98.3181 35.2453 98.2881 35.4002 98.2281 35.54C98.168 35.6799 98.0779 35.8047 97.9628 35.9096C97.8477 36.0145 97.6976 36.0994 97.5224 36.1643C97.3472 36.2292 97.142 36.2542 96.9168 36.2542C96.6115 36.2542 96.3263 36.1793 96.071 36.0345C95.9659 36.0944 95.8658 36.1693 95.7707 36.2492C95.6756 36.3341 95.6256 36.444 95.6256 36.5838C95.6256 36.7237 95.6756 36.8186 95.7757 36.8685C95.8758 36.9185 96.066 36.9434 96.3413 36.9434C96.4013 36.9434 96.4764 36.9434 96.5665 36.9334C96.6566 36.9284 96.7467 36.9235 96.8467 36.9135C96.9468 36.9035 97.0419 36.9035 97.142 36.8935C97.2421 36.8885 97.3322 36.8835 97.4173 36.8835C97.6275 36.8835 97.8177 36.8985 97.9978 36.9334C98.173 36.9684 98.3282 37.0283 98.4483 37.1132C98.5734 37.1981 98.6685 37.318 98.7385 37.4728C98.8086 37.6277 98.8436 37.8224 98.8436 38.0622C98.8436 38.3518 98.7786 38.5916 98.6435 38.7913C98.5133 38.9911 98.3432 39.1509 98.138 39.2758C97.9328 39.4007 97.7026 39.4906 97.4523 39.5505C97.2021 39.6104 96.9518 39.6354 96.7066 39.6354C96.5164 39.6354 96.3213 39.6154 96.1161 39.5705C95.9159 39.5255 95.7307 39.4606 95.5655 39.3657C95.4004 39.2708 95.2653 39.1459 95.1552 38.9861C95.0501 38.8263 94.995 38.6315 94.995 38.3968C94.995 38.217 95.035 38.0522 95.1101 37.9023C95.1852 37.7475 95.2903 37.6127 95.4204 37.4878C95.2352 37.348 95.1451 37.1482 95.1451 36.8935C95.1451 36.6388 95.2102 36.444 95.3453 36.2742C95.4805 36.1044 95.6506 35.9745 95.8708 35.8846C95.7457 35.7997 95.6556 35.6848 95.5956 35.535C95.5355 35.3902 95.5055 35.2254 95.5055 35.0506C95.5055 34.8758 95.5355 34.7109 95.6006 34.5611C95.6656 34.4113 95.7557 34.2814 95.8708 34.1715C95.9859 34.0617 96.1261 33.9768 96.2912 33.9168C96.4514 33.8569 96.6315 33.8269 96.8317 33.8269C97.0469 33.8269 97.2521 33.8519 97.4473 33.8969C97.6425 33.9418 97.8277 34.0317 97.9978 34.1666C98.138 34.1016 98.2831 34.0317 98.4232 33.9668C98.5684 33.9018 98.7185 33.8669 98.8787 33.8669C98.9888 33.8669 99.0839 33.9018 99.1639 33.9768C99.244 34.0517 99.2841 34.1166 99.2841 34.1765V34.3963C99.2841 34.4562 99.2841 34.5062 99.264 34.5411L98.7686 34.7159V34.7109ZM96.9569 39.071C97.087 39.071 97.2421 39.061 97.4223 39.0411C97.6025 39.0211 97.7776 38.9761 97.9378 38.9162C98.1029 38.8563 98.2381 38.7714 98.3582 38.6615C98.4733 38.5516 98.5334 38.4068 98.5334 38.232C98.5334 37.9673 98.4282 37.7875 98.2231 37.6876C98.0129 37.5877 97.7076 37.5378 97.3022 37.5378C96.8568 37.5378 96.5064 37.5378 96.2562 37.5527C96.006 37.5627 95.7958 37.5677 95.6206 37.5677C95.5705 37.6476 95.5355 37.7425 95.5155 37.8474C95.4955 37.9523 95.4855 38.0622 95.4855 38.1621C95.4855 38.3419 95.5355 38.4867 95.6356 38.6016C95.7357 38.7164 95.8608 38.8113 96.011 38.8812C96.1611 38.9512 96.3213 39.0011 96.4914 39.0311C96.6616 39.061 96.8217 39.076 96.9619 39.076H96.9569V39.071ZM96.1961 35.0306C96.1961 35.1604 96.2111 35.2803 96.2412 35.4002C96.2712 35.515 96.3162 35.6199 96.3713 35.7098C96.4314 35.7997 96.5014 35.8746 96.5965 35.9296C96.6916 35.9845 96.7967 36.0145 96.9168 36.0145C97.0369 36.0145 97.147 35.9895 97.2371 35.9296C97.3272 35.8696 97.4023 35.7997 97.4623 35.7098C97.5224 35.6199 97.5624 35.515 97.5925 35.4002C97.6225 35.2853 97.6375 35.1604 97.6375 35.0306C97.6375 34.9007 97.6225 34.7809 97.5925 34.666C97.5624 34.5511 97.5174 34.4462 97.4623 34.3563C97.4073 34.2664 97.3322 34.1965 97.2371 34.1416C97.142 34.0866 97.0369 34.0567 96.9168 34.0567C96.7967 34.0567 96.6866 34.0816 96.5965 34.1416C96.5064 34.2015 96.4314 34.2664 96.3713 34.3563C96.3112 34.4462 96.2712 34.5461 96.2412 34.666C96.2111 34.7809 96.1961 34.9057 96.1961 35.0306Z" fill="#355047"/>
<path d="M101.591 37.2731C101.791 37.2531 101.957 37.2231 102.072 37.1732C102.192 37.1232 102.282 37.0683 102.347 37.0034C102.412 36.9384 102.452 36.8685 102.472 36.7986C102.492 36.7237 102.497 36.6538 102.497 36.5788V32.3386C102.497 32.2038 102.487 32.0839 102.472 31.984C102.457 31.8841 102.417 31.7942 102.357 31.7243C102.297 31.6494 102.202 31.5944 102.082 31.5495C101.957 31.5046 101.791 31.4746 101.586 31.4596V31.3497C101.746 31.3597 101.907 31.3697 102.067 31.3797C102.227 31.3797 102.387 31.3897 102.547 31.3897C102.978 31.3897 103.373 31.3697 103.743 31.3248C104.114 31.2798 104.489 31.2598 104.874 31.2598C105.37 31.2598 105.835 31.3347 106.271 31.4896C106.706 31.6444 107.086 31.8592 107.417 32.1438C107.747 32.4285 108.002 32.7731 108.192 33.1777C108.383 33.5822 108.478 34.0367 108.478 34.5361C108.478 35.0356 108.388 35.4751 108.203 35.8347C108.017 36.1943 107.772 36.484 107.467 36.7137C107.162 36.9434 106.811 37.1082 106.416 37.2131C106.02 37.318 105.61 37.368 105.18 37.368H102.822C102.612 37.368 102.407 37.368 102.207 37.3779C102.007 37.3829 101.801 37.3929 101.591 37.4079V37.2731ZM103.333 36.6488C103.528 36.8336 103.753 36.9584 104.009 37.0333C104.264 37.1082 104.519 37.1432 104.779 37.1432C105.725 37.1432 106.411 36.9035 106.841 36.419C107.272 35.9346 107.492 35.2354 107.492 34.3164C107.492 33.9168 107.422 33.5473 107.277 33.2026C107.132 32.858 106.931 32.5534 106.681 32.2987C106.426 32.0439 106.121 31.8392 105.77 31.6943C105.415 31.5495 105.035 31.4746 104.614 31.4746C104.194 31.4746 103.778 31.5595 103.393 31.7293C103.368 32.0489 103.353 32.3636 103.348 32.6782C103.348 32.9929 103.338 33.3175 103.338 33.6471V36.6488H103.333Z" fill="#355047"/>
<path d="M109.449 35.0606C109.449 34.9157 109.449 34.7859 109.434 34.671C109.424 34.5561 109.399 34.4612 109.349 34.3863C109.299 34.3114 109.233 34.2465 109.143 34.1965C109.053 34.1466 108.923 34.1116 108.768 34.0966V33.9668L110.164 33.8769V36.5739C110.164 36.7287 110.174 36.8485 110.199 36.9384C110.224 37.0283 110.264 37.0933 110.325 37.1382C110.385 37.1832 110.46 37.2181 110.55 37.2331C110.64 37.2531 110.755 37.2631 110.89 37.2681V37.3779C110.675 37.368 110.46 37.358 110.239 37.348C110.024 37.343 109.804 37.338 109.594 37.338C109.454 37.338 109.314 37.338 109.178 37.348C109.043 37.353 108.903 37.363 108.763 37.3779V37.2681C108.888 37.2631 108.988 37.2481 109.073 37.2331C109.158 37.2131 109.228 37.1832 109.284 37.1382C109.339 37.0933 109.379 37.0233 109.404 36.9384C109.429 36.8485 109.439 36.7287 109.439 36.5739V35.0606H109.449ZM109.714 31.1749C109.849 31.1749 109.964 31.2249 110.059 31.3248C110.154 31.4246 110.204 31.5445 110.204 31.6794C110.204 31.8142 110.154 31.9341 110.059 32.034C109.964 32.1338 109.849 32.1838 109.714 32.1838C109.579 32.1838 109.464 32.1338 109.369 32.034C109.274 31.9341 109.223 31.8142 109.223 31.6794C109.223 31.5445 109.269 31.4246 109.369 31.3248C109.464 31.2249 109.579 31.1749 109.714 31.1749Z" fill="#355047"/>
<path d="M110.545 33.9318C110.74 33.9368 110.875 33.9418 110.955 33.9518C111.035 33.9618 111.09 33.9618 111.135 33.9618H111.401C111.451 33.9618 111.506 33.9618 111.576 33.9718C111.676 33.9668 111.756 33.9618 111.826 33.9618H112.196C112.251 33.9618 112.311 33.9618 112.371 33.9518C112.432 33.9468 112.532 33.9418 112.677 33.9318V34.0417C112.547 34.0617 112.422 34.1016 112.301 34.1716C112.176 34.2415 112.116 34.3464 112.116 34.4912C112.116 34.5961 112.156 34.7509 112.241 34.9657C112.326 35.1754 112.422 35.3952 112.527 35.6199C112.632 35.8447 112.742 36.0594 112.842 36.2592C112.947 36.459 113.022 36.5988 113.062 36.6837C113.122 36.5689 113.212 36.409 113.327 36.2043C113.442 35.9995 113.558 35.7847 113.673 35.565C113.788 35.3452 113.883 35.1355 113.968 34.9407C114.053 34.7459 114.093 34.5961 114.093 34.5012C114.093 34.3264 114.043 34.2065 113.943 34.1516C113.843 34.0966 113.718 34.0617 113.573 34.0417V33.9318C113.688 33.9418 113.833 33.9518 114.003 33.9618C114.173 33.9668 114.323 33.9718 114.453 33.9718C114.584 33.9718 114.724 33.9718 114.854 33.9618C114.984 33.9518 115.119 33.9468 115.254 33.9318V34.0417C115.174 34.0467 115.094 34.0667 115.014 34.1016C114.934 34.1366 114.854 34.1915 114.769 34.2664C114.684 34.3414 114.599 34.4462 114.513 34.5761C114.428 34.706 114.333 34.8658 114.233 35.0606C114.018 35.4651 113.803 35.8597 113.588 36.2442C113.372 36.6288 113.177 37.0333 112.997 37.4579H112.667C112.472 37.0184 112.256 36.5639 112.026 36.1044C111.796 35.6449 111.591 35.2004 111.406 34.7759C111.325 34.6011 111.215 34.4412 111.075 34.2964C110.935 34.1566 110.76 34.0717 110.55 34.0417V33.9318H110.545Z" fill="#355047"/>
<path d="M115.82 35.4152C115.82 35.7348 115.86 35.9945 115.945 36.2043C116.03 36.414 116.13 36.5789 116.255 36.6987C116.38 36.8236 116.515 36.9085 116.661 36.9534C116.806 37.0034 116.936 37.0284 117.061 37.0284C117.316 37.0284 117.551 36.9884 117.762 36.9035C117.972 36.8186 118.162 36.6887 118.342 36.5139L118.497 36.6588C118.247 36.9285 117.987 37.1332 117.727 37.2731C117.461 37.4129 117.146 37.4828 116.781 37.4828C116.515 37.4828 116.28 37.4329 116.07 37.328C115.86 37.2231 115.685 37.0883 115.534 36.9135C115.389 36.7437 115.274 36.5439 115.199 36.3241C115.124 36.1044 115.084 35.8796 115.084 35.6449C115.084 35.4102 115.124 35.1854 115.199 34.9657C115.274 34.7459 115.389 34.5511 115.534 34.3763C115.68 34.2065 115.86 34.0667 116.07 33.9618C116.28 33.8569 116.515 33.807 116.781 33.807C117.266 33.807 117.656 33.9368 117.947 34.2015C118.242 34.4662 118.422 34.8658 118.487 35.4052H115.82V35.4152ZM117.611 35.1405C117.591 34.9757 117.566 34.8258 117.536 34.696C117.506 34.5661 117.456 34.4562 117.391 34.3663C117.326 34.2764 117.236 34.2115 117.126 34.1666C117.016 34.1216 116.876 34.0966 116.701 34.0966C116.57 34.0966 116.455 34.1266 116.345 34.1915C116.24 34.2565 116.145 34.3364 116.07 34.4413C115.995 34.5461 115.935 34.656 115.895 34.7809C115.855 34.9057 115.835 35.0256 115.835 35.1455H117.611V35.1405Z" fill="#355047"/>
<path d="M118.557 37.2731C118.768 37.2381 118.923 37.1882 119.038 37.1232C119.148 37.0583 119.203 36.9235 119.203 36.7237V34.5961C119.203 34.4113 119.138 34.3014 119.013 34.2565C118.888 34.2115 118.742 34.1915 118.577 34.1915V34.0817L119.919 33.8819V34.4063C119.994 34.3564 120.079 34.2914 120.169 34.2115C120.264 34.1316 120.364 34.0517 120.474 33.9768C120.579 33.9019 120.689 33.8369 120.799 33.777C120.91 33.7221 121.02 33.6921 121.12 33.6921C121.36 33.6921 121.54 33.757 121.66 33.8919C121.78 34.0217 121.845 34.2065 121.86 34.4363L121.125 34.8208C121.135 34.7759 121.15 34.7359 121.16 34.686C121.17 34.636 121.18 34.5811 121.18 34.5062C121.18 34.4213 121.15 34.3414 121.09 34.2615C121.03 34.1866 120.945 34.1466 120.839 34.1466C120.754 34.1466 120.669 34.1666 120.584 34.2115C120.499 34.2565 120.414 34.3064 120.334 34.3713C120.254 34.4363 120.179 34.5062 120.109 34.5761C120.039 34.651 119.974 34.716 119.919 34.7709V36.7187C119.919 36.9185 119.979 37.0533 120.094 37.1183C120.209 37.1832 120.384 37.2331 120.619 37.2681V37.378C120.409 37.368 120.204 37.358 119.999 37.348C119.793 37.343 119.588 37.338 119.378 37.338C119.238 37.338 119.103 37.338 118.968 37.348C118.838 37.353 118.697 37.363 118.557 37.378V37.2681V37.2731Z" fill="#355047"/>
<path d="M122.041 36.1793H122.171C122.256 36.3092 122.351 36.434 122.461 36.5539C122.566 36.6787 122.686 36.7886 122.816 36.8835C122.946 36.9834 123.082 37.0633 123.232 37.1232C123.382 37.1832 123.537 37.2131 123.702 37.2131C123.782 37.2131 123.862 37.2032 123.947 37.1882C124.033 37.1732 124.103 37.1482 124.173 37.1083C124.238 37.0733 124.298 37.0234 124.338 36.9634C124.383 36.9035 124.403 36.8236 124.403 36.7337C124.403 36.5789 124.348 36.454 124.233 36.3591C124.118 36.2642 123.977 36.1743 123.812 36.1044C123.647 36.0295 123.462 35.9596 123.267 35.8996C123.072 35.8397 122.886 35.7598 122.721 35.6699C122.556 35.58 122.416 35.4701 122.301 35.3452C122.186 35.2204 122.131 35.0506 122.131 34.8508C122.131 34.5212 122.236 34.2665 122.441 34.0867C122.646 33.9119 122.906 33.822 123.217 33.822C123.447 33.822 123.677 33.8519 123.892 33.9119C124.108 33.9718 124.333 34.0117 124.568 34.0217L124.623 34.9956H124.503C124.443 34.8808 124.363 34.7659 124.273 34.661C124.183 34.5561 124.078 34.4612 123.962 34.3763C123.847 34.2914 123.727 34.2265 123.597 34.1766C123.467 34.1266 123.337 34.0966 123.202 34.0966C123.047 34.0966 122.911 34.1316 122.786 34.1965C122.661 34.2665 122.601 34.3863 122.601 34.5661C122.601 34.696 122.656 34.8009 122.771 34.8808C122.886 34.9657 123.022 35.0406 123.192 35.1105C123.357 35.1804 123.542 35.2504 123.737 35.3153C123.937 35.3802 124.118 35.4651 124.283 35.56C124.448 35.6549 124.588 35.7698 124.703 35.9096C124.818 36.0495 124.873 36.2193 124.873 36.419C124.873 36.6338 124.838 36.8086 124.768 36.9484C124.698 37.0883 124.603 37.1932 124.478 37.2731C124.353 37.353 124.213 37.4079 124.048 37.4429C123.887 37.4778 123.712 37.4928 123.527 37.4928C123.382 37.4928 123.237 37.4828 123.107 37.4629C122.971 37.4429 122.846 37.4179 122.726 37.383C122.606 37.353 122.496 37.323 122.391 37.298C122.286 37.2731 122.196 37.2531 122.116 37.2431L122.041 36.1793Z" fill="#355047"/>
<path d="M125.694 35.0606C125.694 34.9157 125.694 34.7859 125.679 34.671C125.664 34.5561 125.644 34.4612 125.594 34.3863C125.549 34.3114 125.479 34.2465 125.389 34.1965C125.299 34.1466 125.174 34.1116 125.013 34.0966V33.9668L126.41 33.8769V36.5739C126.41 36.7287 126.42 36.8485 126.445 36.9384C126.47 37.0283 126.51 37.0933 126.57 37.1382C126.63 37.1832 126.705 37.2181 126.795 37.2331C126.885 37.2531 127 37.2631 127.135 37.2681V37.3779C126.92 37.368 126.705 37.358 126.485 37.348C126.265 37.343 126.049 37.338 125.834 37.338C125.694 37.338 125.554 37.338 125.419 37.348C125.284 37.353 125.149 37.363 125.003 37.3779V37.2681C125.129 37.2631 125.229 37.2481 125.314 37.2331C125.399 37.2131 125.469 37.1832 125.524 37.1382C125.579 37.0933 125.619 37.0233 125.644 36.9384C125.669 36.8485 125.679 36.7287 125.679 36.5739V35.0606H125.694ZM125.959 31.1749C126.094 31.1749 126.21 31.2249 126.305 31.3248C126.4 31.4246 126.445 31.5445 126.445 31.6794C126.445 31.8142 126.4 31.9341 126.305 32.034C126.21 32.1338 126.094 32.1838 125.959 32.1838C125.824 32.1838 125.709 32.1338 125.614 32.034C125.519 31.9341 125.469 31.8142 125.469 31.6794C125.469 31.5445 125.514 31.4246 125.614 31.3248C125.709 31.2249 125.824 31.1749 125.959 31.1749Z" fill="#355047"/>
<path d="M126.85 34.2515V34.1066C127.045 34.1016 127.216 34.0517 127.356 33.9618C127.496 33.8719 127.621 33.752 127.721 33.6122C127.826 33.4724 127.911 33.3175 127.981 33.1427C128.051 32.9729 128.116 32.8081 128.171 32.6483H128.302V33.9818H129.563V34.2565H128.302V36.3941C128.302 36.474 128.302 36.5539 128.317 36.6288C128.327 36.7037 128.347 36.7736 128.372 36.8336C128.402 36.8935 128.437 36.9435 128.492 36.9784C128.542 37.0134 128.617 37.0334 128.707 37.0334C128.892 37.0334 129.042 36.9934 129.167 36.9135C129.292 36.8336 129.413 36.7337 129.538 36.6088L129.623 36.6987C129.518 36.7886 129.418 36.8835 129.318 36.9784C129.217 37.0733 129.117 37.1582 129.007 37.2331C128.902 37.308 128.782 37.373 128.657 37.4179C128.532 37.4629 128.397 37.4878 128.246 37.4878C127.991 37.4878 127.816 37.4079 127.721 37.2531C127.631 37.0983 127.581 36.9135 127.581 36.6987V34.2465H126.845H126.85V34.2515Z" fill="#355047"/>
<path d="M129.568 33.9318C129.753 33.9518 129.923 33.9618 130.078 33.9618H131.159C131.349 33.9618 131.535 33.9468 131.72 33.9318V34.0417C131.585 34.0517 131.455 34.0916 131.334 34.1616C131.214 34.2315 131.149 34.3414 131.149 34.4912C131.149 34.6161 131.189 34.7759 131.269 34.9806C131.349 35.1854 131.445 35.4052 131.55 35.6399C131.655 35.8746 131.765 36.1144 131.88 36.3591C131.995 36.6038 132.085 36.8286 132.15 37.0383C132.18 36.9784 132.23 36.8785 132.295 36.7337C132.36 36.5938 132.435 36.434 132.516 36.2542C132.601 36.0744 132.681 35.8846 132.766 35.6898C132.851 35.4951 132.926 35.3103 132.996 35.1405C133.066 34.9707 133.126 34.8208 133.171 34.691C133.216 34.5611 133.241 34.4762 133.241 34.4363C133.241 34.3613 133.226 34.3064 133.191 34.2615C133.156 34.2165 133.116 34.1815 133.066 34.1566C133.016 34.1266 132.961 34.1066 132.891 34.0916C132.826 34.0767 132.761 34.0617 132.696 34.0417V33.9318C132.836 33.9518 132.976 33.9618 133.121 33.9618H133.967C134.102 33.9618 134.237 33.9468 134.382 33.9318V34.0417C134.212 34.0667 134.042 34.1716 133.882 34.3563C133.722 34.5411 133.572 34.7559 133.431 34.9956C133.291 35.2354 133.171 35.4701 133.066 35.6998C132.961 35.9296 132.881 36.0994 132.826 36.2093C132.571 36.7437 132.335 37.1981 132.125 37.5777C131.915 37.9573 131.73 38.2719 131.56 38.5267C131.389 38.7814 131.239 38.9811 131.099 39.126C130.959 39.2708 130.829 39.3857 130.704 39.4606C130.579 39.5355 130.454 39.5855 130.333 39.6054C130.213 39.6254 130.088 39.6354 129.963 39.6354C129.853 39.6354 129.743 39.6204 129.638 39.5905C129.533 39.5605 129.438 39.5105 129.353 39.4506C129.267 39.3857 129.202 39.3058 129.152 39.2059C129.102 39.106 129.072 38.9911 129.072 38.8563C129.072 38.7314 129.117 38.6215 129.207 38.5267C129.297 38.4268 129.403 38.3818 129.523 38.3818C129.663 38.3818 129.778 38.4168 129.863 38.4867C129.948 38.5566 129.993 38.6665 129.993 38.8113C129.993 38.9162 129.968 39.0011 129.918 39.071C129.868 39.141 129.843 39.1909 129.843 39.2209C129.843 39.2558 129.888 39.2808 129.978 39.2908C130.068 39.3008 130.153 39.3058 130.238 39.3058C130.424 39.3058 130.604 39.2309 130.779 39.081C130.954 38.9312 131.114 38.7614 131.254 38.5666C131.394 38.3718 131.505 38.192 131.59 38.0172C131.675 37.8424 131.72 37.7325 131.72 37.6826C131.72 37.6626 131.7 37.6027 131.655 37.4928C131.61 37.3879 131.555 37.2481 131.48 37.0783C131.404 36.9085 131.324 36.7237 131.229 36.5139C131.134 36.3042 131.044 36.0994 130.954 35.8946C130.864 35.6898 130.769 35.4901 130.679 35.3003C130.589 35.1055 130.509 34.9457 130.439 34.8108C130.379 34.671 130.323 34.5561 130.283 34.4712C130.238 34.3863 130.188 34.3164 130.128 34.2664C130.068 34.2165 129.993 34.1716 129.908 34.1416C129.823 34.1116 129.708 34.0767 129.568 34.0417V33.9318Z" fill="#355047"/>
<path d="M136.044 34.2515V34.1066C136.239 34.1016 136.409 34.0517 136.549 33.9618C136.689 33.8719 136.815 33.752 136.915 33.6122C137.02 33.4724 137.105 33.3175 137.175 33.1427C137.245 32.9729 137.31 32.8081 137.365 32.6483H137.495V33.9818H138.756V34.2565H137.495V36.3941C137.495 36.474 137.495 36.5539 137.51 36.6288C137.52 36.7037 137.54 36.7736 137.565 36.8336C137.595 36.8935 137.63 36.9435 137.685 36.9784C137.735 37.0134 137.811 37.0334 137.901 37.0334C138.086 37.0334 138.236 36.9934 138.361 36.9135C138.486 36.8336 138.606 36.7337 138.731 36.6088L138.817 36.6987C138.711 36.7886 138.611 36.8835 138.511 36.9784C138.411 37.0733 138.311 37.1582 138.201 37.2331C138.096 37.308 137.976 37.373 137.851 37.4179C137.725 37.4629 137.59 37.4878 137.44 37.4878C137.185 37.4878 137.01 37.4079 136.915 37.2531C136.825 37.0983 136.775 36.9135 136.775 36.6987V34.2465H136.039L136.044 34.2515Z" fill="#355047"/>
<path d="M143.251 37.3829C143.071 37.3729 142.885 37.363 142.68 37.353C142.48 37.348 142.27 37.343 142.065 37.343C141.924 37.343 141.789 37.343 141.654 37.353C141.524 37.358 141.394 37.3679 141.274 37.3829V37.2731C141.469 37.2381 141.624 37.1882 141.729 37.1232C141.834 37.0583 141.889 36.9234 141.889 36.7237V35.2453C141.889 34.9357 141.824 34.691 141.694 34.5212C141.564 34.3513 141.349 34.2664 141.054 34.2664C140.949 34.2664 140.843 34.2814 140.733 34.3114C140.623 34.3414 140.523 34.3813 140.428 34.4362C140.333 34.4912 140.258 34.5461 140.198 34.6061C140.138 34.666 140.108 34.7259 140.108 34.7809V36.7287C140.108 36.9284 140.168 37.0633 140.283 37.1282C140.398 37.1931 140.573 37.2431 140.808 37.278V37.3879C140.598 37.3779 140.393 37.3679 140.188 37.358C139.983 37.353 139.777 37.348 139.567 37.348C139.427 37.348 139.292 37.348 139.157 37.358C139.027 37.363 138.887 37.3729 138.746 37.3879V37.278C138.957 37.2431 139.117 37.1931 139.227 37.1282C139.337 37.0633 139.392 36.9284 139.392 36.7287V32.0489C139.392 31.8292 139.382 31.6544 139.362 31.5295C139.342 31.4047 139.302 31.3098 139.252 31.2448C139.202 31.1799 139.127 31.14 139.042 31.12C138.952 31.1 138.842 31.09 138.706 31.085V30.9751L140.113 30.8203V34.3713C140.278 34.2415 140.468 34.1216 140.683 34.0017C140.898 33.8869 141.104 33.8269 141.299 33.8269C141.469 33.8269 141.634 33.8469 141.789 33.8919C141.944 33.9368 142.085 34.0067 142.21 34.1016C142.335 34.2015 142.43 34.3314 142.505 34.4962C142.58 34.661 142.615 34.8658 142.615 35.1105V36.7237C142.615 36.9234 142.67 37.0583 142.78 37.1232C142.89 37.1882 143.051 37.2381 143.261 37.2731V37.3829H143.251Z" fill="#355047"/>
<path d="M143.456 37.2731C143.666 37.2381 143.821 37.1882 143.936 37.1232C144.046 37.0583 144.102 36.9235 144.102 36.7237V34.5961C144.102 34.4113 144.036 34.3014 143.911 34.2565C143.786 34.2115 143.641 34.1915 143.476 34.1915V34.0817L144.817 33.8819V34.4063C144.892 34.3564 144.977 34.2914 145.067 34.2115C145.163 34.1316 145.263 34.0517 145.373 33.9768C145.478 33.9019 145.588 33.8369 145.698 33.777C145.808 33.7221 145.918 33.6921 146.018 33.6921C146.259 33.6921 146.439 33.757 146.559 33.8919C146.679 34.0217 146.744 34.2065 146.759 34.4363L146.023 34.8208C146.033 34.7759 146.048 34.7359 146.058 34.686C146.068 34.636 146.078 34.5811 146.078 34.5062C146.078 34.4213 146.048 34.3414 145.988 34.2615C145.928 34.1866 145.843 34.1466 145.738 34.1466C145.653 34.1466 145.568 34.1666 145.483 34.2115C145.398 34.2565 145.313 34.3064 145.233 34.3713C145.153 34.4363 145.077 34.5062 145.007 34.5761C144.937 34.651 144.872 34.716 144.817 34.7709V36.7187C144.817 36.9185 144.877 37.0533 144.992 37.1183C145.107 37.1832 145.283 37.2331 145.518 37.2681V37.378C145.308 37.368 145.102 37.358 144.897 37.348C144.692 37.343 144.487 37.338 144.277 37.338C144.137 37.338 144.001 37.338 143.866 37.348C143.736 37.353 143.596 37.363 143.456 37.378V37.2681V37.2731Z" fill="#355047"/>
<path d="M148.791 33.822C149.086 33.822 149.351 33.8669 149.597 33.9568C149.837 34.0467 150.047 34.1716 150.222 34.3264C150.397 34.4862 150.533 34.676 150.628 34.9057C150.723 35.1305 150.773 35.3852 150.773 35.6599C150.773 35.9346 150.728 36.1843 150.628 36.414C150.533 36.6388 150.397 36.8336 150.222 36.9934C150.047 37.1532 149.837 37.2781 149.597 37.363C149.356 37.4529 149.086 37.4978 148.791 37.4978C148.496 37.4978 148.23 37.4529 147.985 37.363C147.745 37.2731 147.535 37.1482 147.36 36.9934C147.184 36.8336 147.049 36.6438 146.954 36.414C146.859 36.1893 146.809 35.9346 146.809 35.6599C146.809 35.3852 146.854 35.1355 146.954 34.9057C147.049 34.681 147.184 34.4862 147.36 34.3264C147.535 34.1666 147.745 34.0417 147.985 33.9568C148.225 33.8669 148.496 33.822 148.791 33.822ZM148.626 34.0966C148.456 34.0966 148.305 34.1416 148.18 34.2265C148.055 34.3114 147.95 34.4263 147.87 34.5611C147.785 34.701 147.725 34.8558 147.685 35.0306C147.645 35.2054 147.625 35.3802 147.625 35.55C147.625 35.7448 147.65 35.9396 147.705 36.1394C147.755 36.3341 147.84 36.5139 147.95 36.6787C148.06 36.8386 148.2 36.9734 148.366 37.0733C148.531 37.1732 148.731 37.2231 148.961 37.2231C149.131 37.2231 149.281 37.1782 149.407 37.0933C149.532 37.0084 149.637 36.8935 149.717 36.7587C149.802 36.6188 149.862 36.469 149.902 36.2942C149.942 36.1244 149.962 35.9496 149.962 35.7698C149.962 35.58 149.937 35.3852 149.877 35.1854C149.822 34.9856 149.737 34.8059 149.627 34.646C149.517 34.4862 149.377 34.3514 149.211 34.2515C149.046 34.1516 148.851 34.1016 148.621 34.1016H148.626V34.0966Z" fill="#355047"/>
<path d="M152.144 36.2242C152.144 36.479 152.209 36.6787 152.339 36.8186C152.469 36.9584 152.665 37.0283 152.925 37.0283C153.12 37.0283 153.315 36.9834 153.51 36.8885C153.706 36.7936 153.846 36.6937 153.936 36.5888V34.651C153.936 34.5711 153.931 34.4962 153.916 34.4313C153.901 34.3663 153.871 34.3064 153.826 34.2515C153.776 34.2015 153.701 34.1516 153.606 34.1116C153.505 34.0717 153.375 34.0417 153.21 34.0167V33.9168L154.652 33.817V36.6338C154.652 36.8685 154.712 37.0184 154.832 37.0983C154.952 37.1782 155.117 37.2181 155.332 37.2331V37.323C155.097 37.333 154.867 37.343 154.626 37.353C154.391 37.358 154.161 37.368 153.931 37.3829V36.9035C153.716 37.0633 153.49 37.1982 153.255 37.318C153.02 37.4379 152.765 37.4928 152.489 37.4928C152.194 37.4928 151.944 37.4079 151.734 37.2431C151.524 37.0783 151.423 36.8236 151.423 36.479V34.5811C151.423 34.3963 151.373 34.2714 151.273 34.2065C151.173 34.1416 150.993 34.0916 150.733 34.0617V33.9418L152.139 33.822V36.2242H152.144Z" fill="#355047"/>
<path d="M159.211 34.7109C159.236 34.621 159.246 34.5162 159.246 34.4063C159.246 34.3414 159.216 34.2864 159.156 34.2564C159.096 34.2215 159.021 34.2065 158.936 34.2065C158.886 34.2065 158.83 34.2215 158.76 34.2515C158.695 34.2814 158.64 34.3064 158.605 34.3264C158.655 34.4562 158.69 34.5761 158.72 34.696C158.745 34.8108 158.76 34.9407 158.76 35.0805C158.76 35.2453 158.73 35.4002 158.67 35.54C158.61 35.6799 158.52 35.8047 158.405 35.9096C158.29 36.0145 158.14 36.0994 157.965 36.1643C157.789 36.2292 157.584 36.2542 157.359 36.2542C157.054 36.2542 156.769 36.1793 156.513 36.0345C156.408 36.0944 156.308 36.1693 156.213 36.2492C156.118 36.3341 156.068 36.444 156.068 36.5838C156.068 36.7237 156.118 36.8186 156.218 36.8685C156.318 36.9185 156.508 36.9434 156.784 36.9434C156.844 36.9434 156.919 36.9434 157.009 36.9334C157.099 36.9284 157.189 36.9235 157.289 36.9135C157.389 36.9035 157.484 36.9035 157.584 36.8935C157.684 36.8885 157.774 36.8835 157.86 36.8835C158.07 36.8835 158.26 36.8985 158.44 36.9334C158.615 36.9684 158.77 37.0283 158.891 37.1132C159.016 37.1981 159.111 37.318 159.181 37.4728C159.251 37.6277 159.286 37.8224 159.286 38.0622C159.286 38.3518 159.221 38.5916 159.086 38.7913C158.956 38.9911 158.785 39.1509 158.58 39.2758C158.375 39.4007 158.145 39.4906 157.895 39.5505C157.644 39.6104 157.394 39.6354 157.149 39.6354C156.959 39.6354 156.764 39.6154 156.558 39.5705C156.358 39.5255 156.173 39.4606 156.008 39.3657C155.843 39.2708 155.708 39.1459 155.597 38.9861C155.492 38.8263 155.437 38.6315 155.437 38.3968C155.437 38.217 155.477 38.0522 155.552 37.9023C155.627 37.7475 155.733 37.6127 155.863 37.4878C155.677 37.348 155.587 37.1482 155.587 36.8935C155.587 36.6388 155.652 36.444 155.788 36.2742C155.923 36.1044 156.093 35.9745 156.313 35.8846C156.188 35.7997 156.098 35.6848 156.038 35.535C155.978 35.3902 155.948 35.2254 155.948 35.0506C155.948 34.8758 155.978 34.7109 156.043 34.5611C156.108 34.4113 156.198 34.2814 156.313 34.1715C156.428 34.0617 156.568 33.9768 156.733 33.9168C156.894 33.8569 157.074 33.8269 157.274 33.8269C157.489 33.8269 157.694 33.8519 157.89 33.8969C158.085 33.9418 158.27 34.0317 158.44 34.1666C158.58 34.1016 158.725 34.0317 158.866 33.9668C159.011 33.9018 159.161 33.8669 159.321 33.8669C159.431 33.8669 159.526 33.9018 159.606 33.9768C159.686 34.0517 159.726 34.1166 159.726 34.1765V34.3963C159.726 34.4562 159.721 34.5062 159.706 34.5411L159.211 34.7159V34.7109ZM157.399 39.071C157.529 39.071 157.684 39.061 157.865 39.0411C158.045 39.0211 158.22 38.9761 158.38 38.9162C158.545 38.8563 158.68 38.7714 158.8 38.6615C158.916 38.5516 158.976 38.4068 158.976 38.232C158.976 37.9673 158.871 37.7875 158.665 37.6876C158.455 37.5877 158.15 37.5378 157.744 37.5378C157.299 37.5378 156.949 37.5378 156.698 37.5527C156.448 37.5627 156.238 37.5677 156.063 37.5677C156.013 37.6476 155.978 37.7425 155.958 37.8474C155.938 37.9523 155.928 38.0622 155.928 38.1621C155.928 38.3419 155.978 38.4867 156.078 38.6016C156.178 38.7164 156.303 38.8113 156.453 38.8812C156.603 38.9512 156.764 39.0011 156.934 39.0311C157.104 39.061 157.264 39.076 157.404 39.076H157.399V39.071ZM156.638 35.0306C156.638 35.1604 156.653 35.2803 156.683 35.4002C156.713 35.515 156.759 35.6199 156.814 35.7098C156.874 35.7997 156.944 35.8746 157.039 35.9296C157.134 35.9845 157.239 36.0145 157.359 36.0145C157.479 36.0145 157.589 35.9895 157.679 35.9296C157.769 35.8696 157.845 35.7997 157.905 35.7098C157.965 35.6199 158.005 35.515 158.035 35.4002C158.065 35.2853 158.08 35.1604 158.08 35.0306C158.08 34.9007 158.065 34.7809 158.035 34.666C158.005 34.5511 157.96 34.4462 157.905 34.3563C157.85 34.2664 157.774 34.1965 157.679 34.1416C157.584 34.0866 157.479 34.0567 157.359 34.0567C157.239 34.0567 157.129 34.0816 157.039 34.1416C156.949 34.2015 156.874 34.2664 156.814 34.3563C156.754 34.4462 156.713 34.5461 156.683 34.666C156.653 34.7809 156.638 34.9057 156.638 35.0306Z" fill="#355047"/>
<path d="M164.156 37.3829C163.975 37.3729 163.79 37.363 163.585 37.353C163.385 37.348 163.175 37.343 162.969 37.343C162.829 37.343 162.694 37.343 162.559 37.353C162.429 37.358 162.299 37.3679 162.179 37.3829V37.2731C162.374 37.2381 162.529 37.1882 162.634 37.1232C162.739 37.0583 162.794 36.9234 162.794 36.7237V35.2453C162.794 34.9357 162.729 34.691 162.599 34.5212C162.469 34.3513 162.254 34.2664 161.958 34.2664C161.853 34.2664 161.748 34.2814 161.638 34.3114C161.528 34.3414 161.428 34.3813 161.333 34.4362C161.238 34.4912 161.163 34.5461 161.103 34.6061C161.043 34.666 161.013 34.7259 161.013 34.7809V36.7287C161.013 36.9284 161.073 37.0633 161.188 37.1282C161.303 37.1931 161.478 37.2431 161.713 37.278V37.3879C161.503 37.3779 161.298 37.3679 161.093 37.358C160.887 37.353 160.682 37.348 160.472 37.348C160.332 37.348 160.197 37.348 160.062 37.358C159.932 37.363 159.791 37.3729 159.651 37.3879V37.278C159.861 37.2431 160.022 37.1931 160.132 37.1282C160.242 37.0633 160.297 36.9284 160.297 36.7287V32.0489C160.297 31.8292 160.287 31.6544 160.267 31.5295C160.247 31.4047 160.207 31.3098 160.157 31.2448C160.107 31.1799 160.032 31.14 159.947 31.12C159.856 31.1 159.746 31.09 159.611 31.085V30.9751L161.018 30.8203V34.3713C161.183 34.2415 161.373 34.1216 161.588 34.0017C161.803 33.8869 162.008 33.8269 162.204 33.8269C162.374 33.8269 162.539 33.8469 162.694 33.8919C162.849 33.9368 162.989 34.0067 163.115 34.1016C163.24 34.2015 163.335 34.3314 163.41 34.4962C163.485 34.661 163.52 34.8658 163.52 35.1105V36.7237C163.52 36.9234 163.575 37.0583 163.685 37.1232C163.795 37.1882 163.955 37.2381 164.166 37.2731V37.3829H164.156Z" fill="#355047"/>
<path d="M166.603 37.2731C166.823 37.2531 166.993 37.2231 167.118 37.1732C167.238 37.1232 167.334 37.0483 167.399 36.9434C167.464 36.8386 167.504 36.7037 167.519 36.5339C167.534 36.3641 167.544 36.1543 167.544 35.8946V32.8281C167.544 32.5734 167.534 32.3586 167.519 32.1888C167.504 32.019 167.464 31.8841 167.399 31.7793C167.334 31.6744 167.238 31.5995 167.108 31.5495C166.978 31.4996 166.803 31.4646 166.583 31.4496V31.3398C166.838 31.3497 167.088 31.3597 167.334 31.3697C167.574 31.3697 167.824 31.3797 168.084 31.3797C168.284 31.3797 168.49 31.3797 168.69 31.3697C168.89 31.3597 169.09 31.3547 169.285 31.3398V31.4496C169.07 31.4696 168.9 31.4996 168.78 31.5495C168.655 31.5995 168.565 31.6744 168.505 31.7793C168.445 31.8841 168.405 32.019 168.39 32.1888C168.375 32.3586 168.365 32.5684 168.365 32.8281V35.8946C168.365 36.1493 168.375 36.3641 168.39 36.5339C168.405 36.7037 168.445 36.8386 168.51 36.9434C168.575 37.0483 168.67 37.1232 168.8 37.1732C168.93 37.2231 169.105 37.2581 169.335 37.2731V37.383C169.1 37.373 168.87 37.363 168.635 37.353C168.4 37.348 168.169 37.343 167.934 37.343C167.699 37.343 167.484 37.343 167.263 37.353C167.043 37.358 166.823 37.368 166.603 37.383V37.2731Z" fill="#355047"/>
<path d="M171.047 37.2731C171.267 37.2531 171.437 37.2231 171.562 37.1732C171.688 37.1232 171.778 37.0483 171.843 36.9434C171.908 36.8385 171.948 36.7037 171.963 36.5339C171.978 36.3641 171.988 36.1543 171.988 35.8946V31.6344C171.663 31.6344 171.392 31.6444 171.172 31.6694C170.952 31.6943 170.767 31.7543 170.607 31.8591C170.446 31.959 170.306 32.1139 170.186 32.3236C170.066 32.5334 169.951 32.8181 169.831 33.1777L169.711 33.1427L169.841 31.3447C170.096 31.3547 170.351 31.3647 170.607 31.3747C170.857 31.3747 171.112 31.3847 171.372 31.3847H173.534C173.78 31.3847 174.02 31.3847 174.26 31.3747C174.5 31.3647 174.741 31.3597 174.986 31.3447L175.116 33.1427L174.996 33.1777C174.881 32.8181 174.761 32.5334 174.64 32.3236C174.52 32.1139 174.38 31.959 174.22 31.8591C174.06 31.7593 173.87 31.6943 173.644 31.6694C173.419 31.6444 173.144 31.6344 172.814 31.6344V35.8946C172.814 36.1493 172.824 36.3641 172.839 36.5339C172.854 36.7037 172.894 36.8385 172.959 36.9434C173.024 37.0483 173.119 37.1232 173.249 37.1732C173.379 37.2231 173.554 37.2581 173.785 37.2731V37.3829C173.549 37.3729 173.319 37.363 173.084 37.353C172.849 37.348 172.619 37.343 172.383 37.343C172.148 37.343 171.933 37.343 171.713 37.353C171.492 37.358 171.272 37.368 171.052 37.3829V37.2731H171.047Z" fill="#355047"/>
<path d="M175.416 36.3691C175.556 36.3691 175.676 36.419 175.782 36.5139C175.882 36.6138 175.932 36.7337 175.932 36.8785C175.932 37.0233 175.882 37.1482 175.782 37.2481C175.681 37.348 175.561 37.3929 175.416 37.3929C175.271 37.3929 175.156 37.343 175.051 37.2481C174.946 37.1532 174.901 37.0283 174.901 36.8785C174.901 36.7287 174.951 36.6088 175.051 36.5139C175.151 36.414 175.271 36.3691 175.416 36.3691Z" fill="#355047"/>
<path d="M26.9805 38.182L26.385 36.3641L25.7894 34.5361L25.1989 32.7182L24.6083 30.9052L24.0177 29.0873L23.4272 27.2743L22.8366 25.4564L22.2411 23.6334L21.6505 21.8205L21.0599 20.0075L20.4744 21.8205L19.8838 23.6284L19.2883 25.4614L18.6977 27.2793L18.1021 29.0923L17.5116 30.9102L16.921 32.7282L16.3305 34.5461L15.7349 36.3641L15.1443 38.182L14.5538 40H27.5711L26.9805 38.182Z" fill="#179091"/>
<path d="M42.1249 20.0075H40.2081H38.2963H36.3694H34.4526H32.5408H30.629H28.7172H26.8004H24.8836H22.9717H21.0599L22.6114 21.1312L24.1579 22.255L25.7093 23.3787L27.2558 24.5024L28.8073 25.6262L30.3537 26.7499L31.9052 27.8686L33.4567 28.9924L35.0031 30.1161L36.5546 31.2399L38.1011 32.3636L42.1249 20.0075Z" fill="#92B525"/>
<path d="M19.5185 21.1262L17.977 22.245L16.4155 23.3787L14.8691 24.5024L13.3176 25.6262L11.7711 26.7449L10.2197 27.8686L8.67321 28.9924L7.11673 30.1211L5.57027 31.2399L4.0238 32.3636L14.5538 40L15.1443 38.182L15.7349 36.3641L16.3305 34.5461L16.921 32.7282L17.5116 30.9102L18.1021 29.0923L18.6977 27.2793L19.2883 25.4614L19.8838 23.6284L20.4744 21.8205L21.0599 20.0075L19.5185 21.1262Z" fill="#258EC5"/>
<path d="M19.1531 20.0075H17.2413H15.3245H13.4077H11.4959H9.58408H7.66726H5.75545H3.82863H1.91181H0L4.02381 32.3636L5.57028 31.2399L7.11674 30.1211L8.67322 28.9924L10.2197 27.8686L11.7712 26.7449L13.3176 25.6262L14.8691 24.5024L16.4156 23.3787L17.977 22.245L19.5185 21.1262L21.06 20.0075H19.1531Z" fill="#10679F"/>
<path d="M36.5546 31.2399L35.0031 30.1161L33.4567 28.9924L31.9052 27.8686L30.3537 26.7499L28.8073 25.6262L27.2558 24.5024L25.7093 23.3787L24.1579 22.255L22.6114 21.1312L21.0599 20.0075L21.6505 21.8205L22.2411 23.6334L22.8366 25.4564L23.4272 27.2743L24.0177 29.0873L24.6083 30.9052L25.1989 32.7182L25.7894 34.5361L26.385 36.3641L26.9805 38.182L27.5711 40L38.1011 32.3636L36.5546 31.2399Z" fill="#1E8A3B"/>
<path d="M38.1011 7.65639L36.5546 8.77513L35.0031 9.89886L33.4517 11.0276L31.9052 12.1463L30.3537 13.2701L28.8073 14.3938L27.2558 15.5175L25.7093 16.6413L24.1479 17.775L22.6064 18.8888L21.0599 20.0075H22.9717H24.8836H26.8004H28.7172H30.629H32.5408H34.4526H36.3694H38.2963H40.2081H42.1249L38.1011 7.65639Z" fill="#EAE33C"/>
<path d="M20.4694 18.1945L19.8838 16.3816L19.2883 14.5636L18.6977 12.7457L18.1071 10.9277L17.5166 9.11474L16.921 7.29679L16.3305 5.48383L15.7349 3.65089L15.1443 1.83793L14.5538 0.0199738L4.0238 7.65638L5.57027 8.78012L7.12174 9.89886L8.6682 11.0226L10.2197 12.1463L11.7661 13.2701L13.3176 14.3938L14.8641 15.5175L16.4155 16.6413L17.962 17.765L19.5135 18.8838L21.0599 20.0075L20.4694 18.1945Z" fill="#8D1970"/>
<path d="M19.5135 18.8838L17.962 17.765L16.4156 16.6413L14.8641 15.5175L13.3176 14.3938L11.7661 13.2701L10.2197 12.1463L8.66821 11.0226L7.12175 9.89886L5.57028 8.78012L4.02381 7.65639L0 20.0075H1.91181H3.82863H5.75545H7.66726H9.58408H11.4959H13.4077H15.3245H17.2413H19.1531H21.06L19.5135 18.8838Z" fill="#1B2C59"/>
<path d="M14.5538 0.0199738L15.1443 1.83793L15.7349 3.65089L16.3305 5.48383L16.921 7.29679L17.5166 9.11474L18.1071 10.9277L18.6977 12.7457L19.2883 14.5636L19.8838 16.3816L20.4694 18.1945L21.0599 20.0075L21.6505 18.1995L22.2411 16.3916L22.8366 14.5586L23.4272 12.7407L24.0177 10.9227L24.6133 9.10975L25.2039 7.29179L25.7944 5.47384L26.39 3.65089L26.9805 1.83293L27.5711 0.0199738H14.5538Z" fill="#D1211A"/>
<path d="M27.5711 0.0199738L26.9805 1.83293L26.39 3.65089L25.7944 5.47384L25.2039 7.29179L24.6133 9.10975L24.0177 10.9227L23.4272 12.7407L22.8366 14.5586L22.2411 16.3916L21.6505 18.1995L21.0599 20.0075L22.6064 18.8887L24.1479 17.775L25.7093 16.6413L27.2558 15.5175L28.8073 14.3938L30.3537 13.2701L31.9052 12.1463L33.4517 11.0276L35.0031 9.89886L36.5546 8.77512L38.1011 7.65638L27.5711 0.0199738Z" fill="#E7961F"/>
<path opacity="0.3" d="M25.0938 7.62143L21.0549 20.0125L8.07764 20.0075L4.04382 7.6414L14.5638 0L25.0938 7.62143Z" fill="#F7F7F7"/>
<path opacity="0.3" d="M42.1099 20.0075L38.1011 32.3586L25.0938 32.3736L21.0599 20.0275L31.5799 12.3861L42.1099 20.0075Z" fill="#F7F7F7"/>
<path opacity="0.3" d="M31.6049 27.6339L27.5961 39.985L14.5838 40L10.55 27.6539L21.07 20.0125L31.6049 27.6339Z" fill="#F7F7F7"/>
<path opacity="0.3" d="M38.0861 7.6464L34.0773 20.0025L21.0649 20.0125L17.0361 7.67138L27.5511 0.0249786L38.0861 7.6464Z" fill="#F7F7F7"/>
<path opacity="0.25" d="M21.0549 19.9975L17.0461 32.3486L4.03382 32.3586L0 20.0175L10.52 12.3711L21.0549 19.9975Z" fill="#F7F7F7"/>
<path d="M51.4738 24.1478C52.3096 24.0829 52.9602 23.973 53.4256 23.7982C53.8911 23.6284 54.2414 23.3687 54.4866 23.0091C54.7319 22.6545 54.882 22.19 54.942 21.6157C54.9971 21.0463 55.0221 20.3121 55.0221 19.4331L55.0071 4.90947C53.7759 4.90947 52.745 4.95442 51.9192 5.03932C51.0984 5.11923 50.3877 5.33899 49.7772 5.6786C49.1716 6.03321 48.6461 6.55762 48.1907 7.26182C47.7402 7.97102 47.2948 8.93994 46.8544 10.1735L46.399 10.0587L46.8794 3.92558C47.8553 3.95554 48.8212 3.9905 49.7722 4.00549C50.7281 4.02546 51.689 4.03545 52.6699 4.03046L60.8526 4.02047C61.7835 4.02047 62.7094 4.02047 63.6153 3.9905C64.5161 3.97552 65.442 3.94056 66.3629 3.9006L66.8633 10.0387L66.4029 10.1536C65.9725 8.92495 65.5221 7.95604 65.0666 7.24185C64.6112 6.54263 64.0807 6.00823 63.4801 5.66362C62.8696 5.324 62.1439 5.10924 61.2931 5.02434C60.4423 4.94443 59.3913 4.89948 58.1401 4.89948L58.1551 19.4281C58.1551 20.3071 58.1851 21.0413 58.2452 21.6057C58.3002 22.18 58.4504 22.6545 58.7006 22.9991C58.9458 23.3587 59.3062 23.6184 59.7966 23.7832C60.2821 23.958 60.9577 24.0679 61.8186 24.1328V24.5074C60.9377 24.4625 60.0569 24.4275 59.1711 24.4175C58.2852 24.3876 57.4044 24.3826 56.5235 24.3876C55.6627 24.3876 54.8119 24.3876 53.9761 24.4225C53.1403 24.4375 52.3045 24.4725 51.4688 24.5224V24.1428L51.4738 24.1478Z" fill="#355047"/>
<path d="M64.4411 17.8C64.4411 18.8937 64.5912 19.7877 64.8915 20.4919C65.1918 21.2011 65.5721 21.7805 66.0226 22.19C66.478 22.6046 66.9634 22.8992 67.4839 23.0641C68.0044 23.2339 68.4849 23.3138 68.9303 23.3138C69.8512 23.3138 70.692 23.1689 71.4477 22.8893C72.2034 22.6046 72.8941 22.1601 73.5347 21.5557L74.1002 22.0552C73.1994 22.9742 72.2635 23.6734 71.3176 24.1528C70.3667 24.6323 69.2206 24.887 67.9043 24.892C66.9484 24.892 66.1026 24.7122 65.3419 24.3526C64.5962 24.008 63.9506 23.5385 63.4151 22.9392C62.8896 22.3698 62.4892 21.7006 62.2089 20.9414C61.9237 20.1923 61.7935 19.4182 61.7885 18.629C61.7885 17.8399 61.9187 17.0608 62.2039 16.3116C62.4742 15.5575 62.8746 14.8932 63.4051 14.2939C63.9356 13.7096 64.5762 13.2451 65.3269 12.8855C66.0826 12.5359 66.9284 12.3511 67.8893 12.3511C69.631 12.3511 71.0323 12.8106 72.0933 13.6946C73.1543 14.5886 73.8099 15.957 74.0552 17.79L64.4311 17.8H64.4411ZM70.9122 16.866C70.8471 16.2967 70.757 15.7872 70.6419 15.3427C70.5318 14.8932 70.3517 14.5187 70.1064 14.214C69.8612 13.9143 69.5459 13.6896 69.1405 13.5348C68.7401 13.37 68.2296 13.305 67.6141 13.3C67.1486 13.3 66.7182 13.4049 66.3379 13.6297C65.9525 13.8494 65.6222 14.1291 65.3369 14.4737C65.0667 14.8133 64.8565 15.2029 64.7113 15.6274C64.5612 16.0569 64.4961 16.4665 64.4961 16.871H70.9122V16.866Z" fill="#355047"/>
<path d="M74.8509 13.2251L79.6855 12.5309V14.189C80.286 13.7495 80.9667 13.335 81.7374 12.9354C82.5132 12.5409 83.2488 12.3411 83.9545 12.3411C84.5751 12.3411 85.1657 12.416 85.7262 12.5609C86.2917 12.7007 86.7922 12.9404 87.2276 13.2801C87.673 13.6097 88.0234 14.0592 88.2886 14.6285C88.5539 15.1929 88.689 15.8871 88.689 16.7212V22.24C88.689 22.9242 88.8942 23.3737 89.2946 23.5935C89.69 23.8232 90.2655 23.993 91.0212 24.1129V24.4874C90.3806 24.4425 89.69 24.4075 88.9693 24.3975C88.2386 24.3726 87.5029 24.3676 86.7522 24.3676C86.2417 24.3676 85.7512 24.3776 85.2758 24.4075C84.7953 24.4175 84.3399 24.4575 83.8995 24.5024V24.1279C84.6001 24.003 85.1507 23.8282 85.536 23.6084C85.9214 23.3837 86.1116 22.9342 86.1116 22.25V17.2006C86.1116 16.1368 85.8713 15.3078 85.3909 14.7284C84.9154 14.1491 84.1497 13.8594 83.0937 13.8594C82.7183 13.8594 82.328 13.9143 81.9326 14.0192C81.5372 14.1241 81.1719 14.259 80.8416 14.4388C80.5113 14.6136 80.236 14.8083 80.0108 15.0231C79.7956 15.2329 79.6805 15.4276 79.6805 15.6174L79.6905 22.26C79.6905 22.9442 79.9057 23.3937 80.3261 23.6134C80.7415 23.8382 81.3721 24.008 82.2079 24.1328V24.5124C81.4622 24.4675 80.7165 24.4325 79.9757 24.4175C79.235 24.3926 78.4843 24.3876 77.7386 24.3876C77.2281 24.3876 76.7327 24.3975 76.2622 24.4225C75.7918 24.4325 75.2963 24.4725 74.7858 24.5174V24.1428C75.5365 24.018 76.1121 23.8432 76.5125 23.6184C76.9078 23.4037 77.108 22.9492 77.108 22.2649L77.098 14.9931C77.098 14.3738 76.8628 13.9843 76.4124 13.8344C75.9619 13.6896 75.4364 13.6147 74.8409 13.6197V13.2401L74.8509 13.2251Z" fill="#355047"/>
<path d="M99.6644 19.9226C99.6644 20.7616 99.7095 21.4159 99.8146 21.8754C99.8996 22.3549 100.095 22.7344 100.39 22.9991C100.68 23.2688 101.101 23.4736 101.661 23.6184C102.217 23.7783 102.968 23.9231 103.923 24.0929V24.4675C102.923 24.4275 101.942 24.3876 100.961 24.3776C99.9797 24.3476 98.9988 24.3476 97.9978 24.3426C97.137 24.3426 96.2862 24.3526 95.4404 24.3826C94.5846 24.3926 93.7288 24.4325 92.873 24.4775V24.1079C93.7038 24.038 94.3644 23.9281 94.8398 23.7583C95.3203 23.5885 95.6856 23.3238 95.9409 22.9742C96.1961 22.6146 96.3563 22.1451 96.4263 21.5707C96.4964 21.0064 96.5314 20.2772 96.5264 19.3982L96.5164 8.94994C96.5164 8.07093 96.4814 7.34674 96.4063 6.76739C96.3363 6.19803 96.1761 5.72856 95.9159 5.36897C95.6606 5.00937 95.2953 4.75965 94.8148 4.59484C94.3394 4.43002 93.6787 4.31515 92.848 4.25022V3.88064C93.1683 3.89562 93.6037 3.91061 94.1392 3.93558C94.6747 3.95556 95.2252 3.96554 95.8008 3.98053C96.3613 3.99052 96.9118 3.99052 97.4323 3.99052C97.9528 3.99052 98.3782 3.98552 98.7035 3.99052H104.659C105.845 3.98552 106.886 3.97054 107.802 3.94057C108.703 3.91061 109.659 3.88563 110.66 3.87065C110.62 4.30017 110.58 4.73468 110.56 5.16919C110.535 5.58872 110.52 6.01324 110.52 6.43277C110.52 6.97716 110.535 7.51156 110.56 8.05095C110.58 8.58035 110.62 9.10976 110.66 9.65914H110.099C109.724 8.47547 109.243 7.54652 108.648 6.89225C108.057 6.23299 107.357 5.75853 106.556 5.44888C105.75 5.14921 104.839 4.97441 103.818 4.90948C102.792 4.84456 103.283 4.81958 102.077 4.82458C101.681 4.82458 101.286 4.83457 100.896 4.85954C100.49 4.88451 100.08 4.8945 99.6344 4.8945V12.6408H102.432C103.833 12.6408 104.909 12.3811 105.675 11.8567C106.446 11.3273 107.061 10.4732 107.522 9.28456H107.937C107.872 10.698 107.837 12.1214 107.842 13.5398C107.842 14.2939 107.842 14.9931 107.862 15.6224C107.872 16.2617 107.902 16.9459 107.947 17.6751H107.532C107.297 16.901 107.056 16.2567 106.796 15.7473C106.536 15.2429 106.231 14.8233 105.87 14.5137C105.51 14.194 105.07 13.9643 104.559 13.8245C104.049 13.6746 103.418 13.5747 102.672 13.5098C102.467 13.4898 102.247 13.4848 102.012 13.4649C101.776 13.4549 101.526 13.4399 101.276 13.4449H99.6344L99.6444 19.9276H99.6644V19.9226Z" fill="#355047"/>
<path d="M113.513 16.5364C113.513 16.032 113.498 15.5875 113.467 15.1979C113.432 14.8183 113.342 14.4937 113.182 14.234C113.032 13.9693 112.792 13.7595 112.482 13.5947C112.161 13.4249 111.736 13.3 111.185 13.2551V12.8056L115.955 12.4959L115.965 21.6956C115.965 22.225 116.015 22.6295 116.095 22.9292C116.18 23.2389 116.325 23.4736 116.515 23.6284C116.721 23.7882 116.981 23.8981 117.286 23.958C117.596 24.018 117.987 24.043 118.452 24.0829V24.4575C117.722 24.4125 116.981 24.3776 116.235 24.3676C115.494 24.3426 114.754 24.3326 114.023 24.3326C113.543 24.3326 113.072 24.3426 112.612 24.3676C112.151 24.3826 111.681 24.4225 111.2 24.4625V24.0879C111.621 24.0479 111.971 24.023 112.266 23.958C112.562 23.8981 112.802 23.7832 112.992 23.6234C113.182 23.4686 113.317 23.2389 113.407 22.9292C113.483 22.6295 113.523 22.225 113.523 21.7006L113.513 16.5364Z" fill="#355047"/>
<path d="M117.281 12.6857C117.952 12.7057 118.422 12.7257 118.677 12.7457C118.943 12.7606 119.143 12.7656 119.288 12.7706H120.204C120.369 12.7706 120.569 12.7856 120.799 12.8006C121.135 12.7806 121.42 12.7706 121.64 12.7706H122.901C123.087 12.7706 123.282 12.7606 123.492 12.7407C123.702 12.7207 124.048 12.7007 124.533 12.6807V13.0553C124.083 13.1152 123.662 13.2751 123.242 13.4998C122.826 13.7345 122.616 14.0991 122.621 14.5986C122.621 14.9532 122.761 15.4876 123.047 16.2118C123.327 16.921 123.647 17.6651 124.017 18.4443C124.383 19.2184 124.748 19.9376 125.099 20.6218C125.459 21.301 125.709 21.7855 125.854 22.0752C126.064 21.6806 126.365 21.1262 126.765 20.427C127.16 19.7328 127.546 19.0086 127.936 18.2545C128.327 17.5003 128.657 16.7911 128.937 16.1219C129.217 15.4576 129.363 14.9582 129.363 14.6285C129.363 14.0192 129.187 13.6197 128.842 13.4299C128.497 13.2501 128.071 13.1202 127.571 13.0603V12.6857C127.966 12.7307 128.467 12.7556 129.042 12.7706C129.633 12.8006 130.143 12.8006 130.584 12.8006C131.024 12.8006 131.505 12.8006 131.945 12.7656C132.4 12.7507 132.851 12.7257 133.311 12.6707V13.0503C133.041 13.0753 132.776 13.1452 132.501 13.2601C132.23 13.37 131.95 13.5647 131.67 13.8244C131.389 14.0842 131.094 14.4288 130.794 14.8733C130.494 15.3028 130.173 15.8622 129.843 16.5314C129.102 17.9099 128.377 19.2633 127.646 20.5719C126.915 21.8904 126.245 23.2738 125.639 24.7122H124.508C123.842 23.1989 123.112 21.6756 122.326 20.0924C121.535 18.5192 120.829 17.0109 120.204 15.5675C119.924 14.9632 119.553 14.4288 119.068 13.9443C118.587 13.4649 117.992 13.1752 117.276 13.0703V12.6857H117.281Z" fill="#355047"/>
<path d="M135.093 17.7201C135.093 18.8138 135.248 19.7178 135.548 20.412C135.844 21.1212 136.219 21.7006 136.674 22.1051C137.135 22.5247 137.615 22.8143 138.131 22.9792C138.651 23.149 139.142 23.2339 139.582 23.2339C140.513 23.2339 141.354 23.089 142.105 22.8093C142.855 22.5297 143.556 22.0802 144.197 21.4758L144.757 21.9803C143.851 22.8942 142.92 23.5935 141.974 24.0779C141.019 24.5574 139.883 24.8121 138.556 24.8121C137.605 24.8121 136.75 24.6323 135.999 24.2777C135.258 23.9281 134.608 23.4586 134.077 22.8643C133.542 22.2999 133.136 21.6257 132.861 20.8665C132.586 20.1174 132.445 19.3432 132.45 18.5541C132.45 17.76 132.586 16.9809 132.856 16.2317C133.131 15.4876 133.537 14.8133 134.067 14.219C134.598 13.6347 135.238 13.1652 135.989 12.8106C136.735 12.456 137.59 12.2812 138.546 12.2812C140.283 12.2812 141.694 12.7357 142.755 13.6247C143.821 14.5187 144.472 15.8821 144.717 17.7151L135.098 17.7251H135.093V17.7201ZM141.569 16.7861C141.494 16.2168 141.404 15.7123 141.299 15.2678C141.189 14.8133 141.014 14.4388 140.768 14.1341C140.523 13.8344 140.203 13.6097 139.802 13.4549C139.402 13.295 138.897 13.2201 138.271 13.2251C137.806 13.2251 137.375 13.33 136.995 13.5498C136.604 13.7645 136.264 14.0542 135.994 14.3938C135.719 14.7384 135.508 15.123 135.363 15.5525C135.218 15.977 135.153 16.3916 135.153 16.7961H141.569V16.7861Z" fill="#355047"/>
<path d="M112.902 10.3534L112.066 7.78125L114.248 6.20802L116.435 7.77626L115.6 10.3484L112.902 10.3534Z" fill="#355047"/>
<path d="M187.057 24.4175L186.452 22.5396L188.048 21.381L189.64 22.5347L189.029 24.4125L187.057 24.4175Z" fill="#355047"/>
<path d="M46.7143 28.5629H190" stroke="#355047" stroke-miterlimit="10"/>
<path d="M157.004 4.55487C155.627 4.55487 155.242 5.40891 155.242 6.32288L155.067 22.2949C155.067 23.2089 155.632 24.0629 156.688 24.0629V24.5923C155.948 24.5923 154.892 24.4725 153.691 24.4725C152.635 24.4725 151.574 24.5923 150.873 24.5923V24.0629C151.859 24.0629 152.424 23.2089 152.424 22.2949L152.249 6.32288C152.249 5.40891 151.864 4.55487 150.488 4.55487V4.02547C151.579 4.02547 152.64 4.14533 153.696 4.14533C154.892 4.14533 155.953 4.02547 157.009 4.02547V4.55487H157.004Z" fill="#355047"/>
<path d="M161.378 14.0442C162.964 13.1902 164.516 12.1863 166.738 12.1863C169.415 12.1863 171.107 13.8095 171.107 15.8721V23.2688C171.107 23.7133 171.497 23.9181 172.128 24.1528V24.5923C171.317 24.5923 170.507 24.4725 169.696 24.4725C168.885 24.4725 168.074 24.5923 167.228 24.5923V24.1528C167.759 24.008 168.64 23.7982 168.64 23.2688V20.3821C168.64 18.7889 168.535 16.4315 168.395 15.8422C168.009 14.2789 166.598 13.6596 164.941 13.6596C163.53 13.6596 162.229 14.3988 161.383 14.9582C161.383 16.2867 161.313 18.5242 161.313 20.5569V23.2688C161.313 23.7383 161.733 23.8881 162.369 24.1528V24.5923C161.558 24.5923 160.747 24.4725 159.937 24.4725C159.126 24.4725 158.315 24.5923 157.504 24.5923V24.1528C158.035 24.008 158.845 23.7982 158.845 23.2688V19.3782C158.845 17.755 158.74 15.1629 158.6 14.8083C158.46 14.4238 158.18 14.3089 157.084 14.3089V13.8644C158.565 13.4499 159.831 12.9804 160.822 12.1863H161.353L161.388 14.0442H161.378Z" fill="#355047"/>
<path d="M185.661 15.3677H185.13C184.67 13.7745 182.453 13.0104 180.686 13.0104C177.443 13.0104 175.541 15.2778 175.541 17.9298C175.541 21.1412 177.869 23.4137 181.817 23.4137C183.404 23.4137 184.85 22.7944 185.731 21.8804L186.191 22.0851L184.85 24.2377C184.71 24.4725 182.383 24.887 180.796 24.887C176.282 24.887 172.724 22.7045 172.724 18.5192C172.724 14.3339 176.282 12.1813 180.796 12.1813C182.558 12.1813 184.215 12.5659 185.661 12.9205V15.3677Z" fill="#355047"/>
</svg>
