<svg xmlns="http://www.w3.org/2000/svg" xmlns:xlink="http://www.w3.org/1999/xlink" width="64" height="67" viewBox="0 0 64 67"><defs><linearGradient id="a" x1="0.03" y1="-0.24" x2="0.826" y2="1.039" gradientUnits="objectBoundingBox"><stop offset="0" stop-color="#48c49a"/><stop offset="0.251" stop-color="#1dbcbb"/><stop offset="0.655" stop-color="#75dda1"/><stop offset="1" stop-color="#ffb56a"/></linearGradient></defs><g transform="translate(-140 -1544.412)"><path d="M1536.921,111.266h-32l-16,27.723,16,27.723h32l16-27.723Z" transform="translate(-1348.921 1444.699)" fill="url(#a)"/><path d="M1557.066,92.342h12.187a1,1,0,0,1,.866.5l6.093,10.554a1,1,0,0,1,0,1l-6.093,10.554a1,1,0,0,1-.866.5h-12.187a1,1,0,0,1-.866-.5l-6.093-10.554a1,1,0,0,1,0-1l6.093-10.554A1,1,0,0,1,1557.066,92.342Zm11.609,2h-11.032l-5.516,9.554,5.516,9.554h11.032l5.516-9.554Z" transform="translate(-1374.723 1452.069)" fill="#bebebe"/></g></svg>