<?xml version="1.0" encoding="UTF-8"?><svg id="_レイヤー_2" xmlns="http://www.w3.org/2000/svg" viewBox="0 0 379.64 80.09"><defs><style>.cls-1{fill:#355047;}.cls-2{fill:none;stroke:#355047;stroke-miterlimit:10;}.cls-3{fill:#e7961f;}.cls-4{opacity:.25;}.cls-4,.cls-5{fill:#f7f7f7;}.cls-5{opacity:.3;}.cls-6{fill:#10679f;}.cls-7{fill:#d1211a;}.cls-8{fill:#92b525;}.cls-9{fill:#8d1970;}.cls-10{fill:#1e8a3b;}.cls-11{fill:#1b2c59;}.cls-12{fill:#179091;}.cls-13{fill:#eae33c;}.cls-14{fill:#258ec5;}</style></defs><g id="_レイヤー_1-2"><path class="cls-1" d="M135.46,62.75c.44.02.88.04,1.32.06.44.01.88.02,1.32.02.39,0,.78,0,1.17-.02.39-.01.78-.03,1.17-.06v.22c-.51.07-.94.22-1.27.44-.33.22-.5.62-.5,1.19,0,.31.05.81.14,1.5s.21,1.45.35,2.27c.14.82.29,1.64.44,2.46.15.82.3,1.52.43,2.1.06.25.13.46.2.64.07.18.18.35.31.49.13.14.33.26.57.35s.57.16.97.21v.22c-.49-.02-.98-.04-1.46-.06-.48-.01-.97-.02-1.46-.02s-.92,0-1.37.02c-.45.01-.9.03-1.37.06v-.22c.26-.04.5-.08.74-.14.23-.06.44-.14.62-.25.18-.11.32-.26.41-.45.1-.19.15-.44.15-.76,0-.15,0-.34-.02-.59-.01-.25-.05-.53-.11-.85l-1.27-7.41h-.04c-.34.88-.7,1.76-1.08,2.62s-.75,1.73-1.12,2.6-.73,1.75-1.08,2.64-.67,1.8-.95,2.73h-.04c-.59-1.9-1.25-3.73-1.99-5.49-.74-1.76-1.53-3.52-2.38-5.28h-.04c-.1.67-.2,1.42-.29,2.24-.1.82-.19,1.62-.27,2.4-.08.78-.14,1.49-.19,2.13-.05.64-.07,1.12-.07,1.44,0,.4.03.75.08,1.05.06.29.16.54.32.73.16.2.38.34.65.44s.63.16,1.08.18v.22c-.51-.02-1.02-.04-1.51-.06-.49-.01-.99-.02-1.51-.02-.38,0-.76,0-1.13.02-.37.01-.75.03-1.13.06v-.22c.26-.02.51-.07.76-.15.25-.07.48-.17.69-.3.21-.13.38-.28.52-.46.14-.18.23-.39.27-.63.07-.43.14-.88.2-1.35.06-.47.12-.94.18-1.41l.88-6.54c-.26-.21-.56-.38-.92-.51s-.71-.23-1.07-.29v-.22c.53.02,1.05.04,1.57.06.52.01,1.04.02,1.57.02.38,0,.76,0,1.13-.02s.75-.03,1.13-.06v.22c-.23.06-.45.16-.64.3-.2.14-.29.36-.29.67,0,.21.03.41.1.61.07.2.14.4.23.61l2.59,6.36c.62-1.3,1.22-2.6,1.78-3.91s1.08-2.64,1.54-4.02c-.13-.16-.29-.29-.48-.39s-.37-.18-.57-.24v-.22Z"/><path class="cls-1" d="M143.16,70.91c0,.64.08,1.16.25,1.58s.37.75.62.99c.25.25.52.42.81.51.29.1.55.15.8.15.51,0,.98-.08,1.4-.25.42-.17.8-.43,1.16-.78l.31.29c-.5.54-1.02.95-1.54,1.23-.53.28-1.16.42-1.89.42-.53,0-1-.1-1.42-.31-.42-.21-.77-.48-1.07-.83-.29-.34-.52-.74-.67-1.18-.15-.44-.23-.89-.23-1.36s.08-.92.23-1.36c.15-.44.38-.83.67-1.18.29-.34.65-.62,1.07-.83.42-.21.89-.31,1.42-.31.97,0,1.75.26,2.33.79.59.53.95,1.33,1.08,2.41h-5.33ZM146.75,70.36c-.04-.33-.09-.63-.15-.89-.06-.26-.16-.48-.29-.66-.13-.18-.31-.31-.53-.4-.22-.09-.5-.14-.84-.14-.26,0-.49.06-.71.19-.21.13-.4.29-.55.5s-.27.43-.35.68c-.08.25-.12.49-.12.73h3.55Z"/><path class="cls-1" d="M156.7,72.92c0,.32.02.58.05.79.04.21.11.38.22.51.11.13.27.22.47.27s.47.07.8.07v.22c-.49,0-.98,0-1.46.02-.48.01-.98.03-1.5.06v-.68c-.28.25-.68.46-1.19.63-.51.18-1.06.27-1.65.27-.5,0-.96-.09-1.37-.28-.41-.19-.76-.45-1.05-.77-.29-.32-.51-.7-.67-1.13-.16-.43-.24-.88-.24-1.34,0-.55.1-1.06.29-1.53s.47-.87.82-1.21c.35-.34.76-.61,1.23-.8.47-.19.98-.28,1.53-.28.4,0,.8.07,1.18.22s.74.32,1.08.53v-4.76c0-.29-.02-.53-.06-.72s-.13-.33-.25-.44c-.12-.11-.29-.19-.49-.24-.2-.05-.46-.09-.76-.11v-.22l3-.29v11.23ZM155.27,69.7c-.04-.16-.13-.33-.27-.51-.14-.18-.32-.34-.52-.48-.21-.14-.44-.26-.71-.35s-.53-.14-.8-.14c-.42,0-.77.09-1.06.28-.29.18-.52.43-.71.73-.18.3-.32.64-.4,1.01-.09.37-.13.74-.13,1.11s.04.74.13,1.11c.08.37.22.71.4,1.01.18.3.42.54.71.73.29.18.64.28,1.06.28.28,0,.55-.04.81-.13.26-.09.49-.19.7-.32.21-.13.38-.27.52-.41.14-.15.23-.28.27-.39v-3.53Z"/><path class="cls-1" d="M159.87,70.2c0-.29,0-.55-.03-.78-.02-.23-.07-.42-.17-.57s-.23-.28-.41-.38c-.18-.1-.44-.17-.75-.2v-.26l2.79-.18v5.4c0,.31.02.55.07.73.05.18.13.31.25.4.12.09.27.16.45.19.18.04.41.06.68.07v.22c-.43-.02-.86-.04-1.3-.06-.43-.01-.87-.02-1.29-.02-.28,0-.56,0-.83.02-.27.01-.55.03-.83.06v-.22c.25-.01.45-.04.62-.07.17-.04.31-.1.42-.19s.19-.23.24-.4c.05-.18.07-.42.07-.73v-3.03ZM160.4,62.42c.27,0,.5.1.69.3.19.2.29.44.29.71s-.1.51-.29.71c-.19.2-.42.3-.69.3s-.5-.1-.69-.3c-.19-.2-.29-.44-.29-.71s.09-.51.29-.71c.19-.2.42-.3.69-.3Z"/><path class="cls-1" d="M163.6,69.41c.1-.38.24-.68.41-.91s.38-.4.62-.51c.23-.12.5-.19.79-.22.29-.03.61-.05.94-.05s.63.03.95.1c.31.07.59.18.84.34.25.16.45.37.61.63.15.26.23.58.23.96v3.4c0,.23.06.44.18.62.12.18.31.27.57.27s.46-.07.65-.21c.19-.14.37-.28.54-.41l.18.2c-.12.12-.27.27-.43.43-.17.17-.34.32-.52.48s-.37.28-.56.39c-.19.1-.38.16-.56.16-.12,0-.25-.04-.39-.12-.13-.08-.27-.17-.4-.29s-.25-.23-.36-.35c-.11-.12-.21-.23-.29-.31-.39.27-.83.51-1.32.74-.49.22-.97.33-1.43.33-.26,0-.5-.04-.74-.13-.24-.09-.45-.21-.63-.37s-.33-.35-.44-.57c-.11-.22-.17-.47-.17-.75,0-.5.14-.9.42-1.2.28-.3.65-.53,1.09-.69.45-.16.96-.27,1.53-.32.57-.06,1.14-.09,1.72-.1v-1.4c0-.45-.14-.8-.42-1.05-.28-.25-.64-.37-1.07-.37-.32,0-.57.16-.75.48-.18.32-.28.68-.28,1.08l-1.51-.28ZM167.59,71.65c-.4-.11-.81-.17-1.23-.17-.23,0-.47.03-.7.08s-.44.14-.62.27c-.18.12-.33.28-.45.47s-.17.42-.17.69c0,.42.14.71.43.89.29.18.61.27.96.27.39,0,.75-.08,1.08-.24.32-.16.56-.29.71-.4v-1.86Z"/><path class="cls-1" d="M170.34,68.58v-.29c.39-.01.73-.11,1.01-.29.28-.18.53-.42.74-.7.21-.28.38-.59.52-.94.14-.34.27-.67.38-.99h.26v2.67h2.52v.55h-2.52v4.28c0,.16,0,.32.03.47.02.15.05.29.11.41.05.12.13.22.24.29.1.07.25.11.43.11.37,0,.67-.08.92-.24.24-.16.49-.36.73-.61l.17.18c-.21.18-.41.37-.61.56-.2.19-.4.36-.62.51-.21.15-.45.28-.7.37s-.52.14-.82.14c-.51,0-.86-.16-1.05-.47-.18-.31-.28-.68-.28-1.11v-4.91h-1.47Z"/><path class="cls-1" d="M177.43,70.2c0-.29,0-.55-.03-.78-.02-.23-.07-.42-.17-.57s-.23-.28-.41-.38c-.18-.1-.44-.17-.75-.2v-.26l2.79-.18v5.4c0,.31.02.55.07.73.05.18.13.31.25.4.12.09.27.16.45.19.18.04.41.06.68.07v.22c-.43-.02-.86-.04-1.3-.06-.43-.01-.87-.02-1.29-.02-.28,0-.56,0-.83.02-.27.01-.55.03-.83.06v-.22c.25-.01.45-.04.62-.07.17-.04.31-.1.42-.19s.19-.23.24-.4c.05-.18.07-.42.07-.73v-3.03ZM177.96,62.42c.27,0,.5.1.69.3.19.2.29.44.29.71s-.1.51-.29.71c-.19.2-.42.3-.69.3s-.5-.1-.69-.3c-.19-.2-.29-.44-.29-.71s.09-.51.29-.71c.19-.2.42-.3.69-.3Z"/><path class="cls-1" d="M180.65,68.23l2.68-.4v.97c.33-.26.71-.5,1.14-.74.43-.23.84-.35,1.23-.35.34,0,.67.04.98.13.31.09.59.23.84.42.24.2.44.46.59.79.15.33.22.74.22,1.23v3.23c0,.4.11.67.33.8.22.13.54.23.96.3v.22c-.36-.02-.74-.04-1.14-.06-.4-.01-.81-.02-1.23-.02-.28,0-.55,0-.82.02-.26.01-.52.03-.76.06v-.22c.39-.07.7-.17.91-.3.21-.13.32-.4.32-.8v-2.96c0-.62-.13-1.11-.4-1.45-.26-.34-.69-.51-1.28-.51-.21,0-.42.03-.64.09-.22.06-.42.14-.61.25-.18.1-.34.22-.46.34-.12.12-.18.24-.18.35v3.9c0,.4.12.67.35.8.23.13.58.23,1.05.3v.22c-.42-.02-.83-.04-1.24-.06-.41-.01-.82-.02-1.24-.02-.28,0-.55,0-.82.02-.26.01-.54.03-.82.06v-.22c.42-.07.73-.17.96-.3.22-.13.33-.4.33-.8v-4.26c0-.37-.13-.59-.38-.68-.25-.09-.54-.13-.87-.13v-.22Z"/><path class="cls-1" d="M197.35,69.5c.05-.18.07-.39.07-.61,0-.13-.06-.24-.18-.3-.12-.07-.27-.1-.44-.1-.1,0-.21.03-.35.09-.13.06-.24.11-.31.15.1.26.17.5.23.74.05.23.08.49.08.77,0,.33-.06.64-.18.92-.12.28-.3.53-.53.74-.23.21-.53.38-.88.51s-.76.18-1.21.18c-.61,0-1.18-.15-1.69-.44-.21.12-.41.27-.6.43-.19.17-.29.39-.29.67s.1.47.3.57.58.15,1.13.15c.12,0,.27,0,.45-.02.18-.01.36-.02.56-.04s.39-.02.59-.04c.2-.01.38-.02.55-.02.42,0,.8.03,1.16.1.35.07.66.19.9.36.25.17.44.41.58.72.14.31.21.7.21,1.18,0,.58-.13,1.06-.4,1.46-.26.4-.6.72-1.01.97-.41.25-.87.43-1.37.55-.5.12-1,.17-1.49.17-.38,0-.77-.04-1.18-.13-.4-.09-.77-.22-1.1-.41-.33-.19-.6-.44-.82-.76-.21-.32-.32-.71-.32-1.18,0-.36.08-.69.23-.99.15-.31.36-.58.62-.83-.37-.28-.55-.68-.55-1.19s.13-.9.4-1.24c.27-.34.61-.6,1.05-.78-.25-.17-.43-.4-.55-.7-.12-.29-.18-.62-.18-.97s.06-.68.19-.98c.13-.3.31-.56.54-.78.23-.22.51-.39.84-.51.32-.12.68-.18,1.08-.18.43,0,.84.05,1.23.14.39.09.76.27,1.1.54.28-.13.57-.27.85-.4.29-.13.59-.2.91-.2.22,0,.41.07.57.22.16.15.24.28.24.4v.44c0,.12-.01.22-.04.29l-.99.35ZM193.73,78.23c.26,0,.57-.02.93-.06s.71-.13,1.03-.25c.33-.12.6-.29.84-.51.23-.22.35-.51.35-.86,0-.53-.21-.89-.62-1.09-.42-.2-1.03-.3-1.84-.3-.89,0-1.59,0-2.09.03-.5.02-.92.03-1.27.03-.1.16-.17.35-.21.56-.04.21-.06.43-.06.63,0,.36.1.65.3.88.2.23.45.42.75.56.3.14.62.24.96.3.34.06.66.09.94.09ZM192.21,70.14c0,.26.03.5.09.74.06.23.15.44.26.62.12.18.26.33.45.44s.4.17.64.17.46-.05.64-.17.33-.26.45-.44c.12-.18.2-.39.26-.62.06-.23.09-.48.09-.74s-.03-.5-.09-.73c-.06-.23-.15-.44-.26-.62s-.26-.32-.45-.43-.4-.17-.64-.17-.46.05-.64.17-.33.25-.45.43c-.12.18-.2.38-.26.62-.06.23-.09.48-.09.73Z"/><path class="cls-1" d="M202.99,74.63c.4-.04.73-.1.96-.2.24-.1.42-.21.55-.34.13-.13.21-.27.25-.41.04-.15.05-.29.05-.44v-8.49c0-.27-.02-.51-.05-.71s-.11-.38-.23-.52c-.12-.15-.31-.26-.55-.35-.25-.09-.58-.15-.99-.18v-.22c.32.02.64.04.96.06.32.01.64.02.96.02.86,0,1.65-.04,2.39-.13.74-.09,1.49-.13,2.26-.13.99,0,1.92.15,2.79.46.87.31,1.63.74,2.29,1.31.66.57,1.17,1.26,1.55,2.07s.57,1.72.57,2.72-.18,1.88-.55,2.6-.86,1.3-1.47,1.76c-.61.46-1.31.79-2.1,1-.79.21-1.61.31-2.47.31-.66,0-1.23,0-1.7,0-.47,0-.89,0-1.24,0s-.67,0-.96,0c-.28,0-.55,0-.81,0-.42,0-.83,0-1.23.02-.4.01-.81.03-1.23.06v-.22ZM206.47,73.38c.39.37.84.62,1.35.77s1.02.22,1.54.22c1.89,0,3.26-.48,4.12-1.45.86-.97,1.3-2.37,1.3-4.21,0-.8-.14-1.54-.43-2.23-.29-.69-.69-1.3-1.19-1.81-.51-.51-1.12-.92-1.82-1.21-.71-.29-1.47-.44-2.31-.44s-1.67.17-2.44.51c-.05.64-.08,1.27-.09,1.9-.01.63-.02,1.28-.02,1.94v6.01Z"/><path class="cls-1" d="M218.69,70.2c0-.29,0-.55-.03-.78-.02-.23-.07-.42-.17-.57s-.23-.28-.41-.38c-.18-.1-.44-.17-.75-.2v-.26l2.79-.18v5.4c0,.31.02.55.07.73.05.18.13.31.25.4.12.09.27.16.45.19.18.04.41.06.68.07v.22c-.43-.02-.86-.04-1.3-.06-.43-.01-.87-.02-1.29-.02-.28,0-.56,0-.83.02-.27.01-.55.03-.83.06v-.22c.25-.01.45-.04.62-.07.17-.04.31-.1.42-.19s.19-.23.24-.4c.05-.18.07-.42.07-.73v-3.03ZM219.22,62.42c.27,0,.5.1.69.3.19.2.29.44.29.71s-.1.51-.29.71c-.19.2-.42.3-.69.3s-.5-.1-.69-.3c-.19-.2-.29-.44-.29-.71s.09-.51.29-.71c.19-.2.42-.3.69-.3Z"/><path class="cls-1" d="M220.88,67.94c.39.01.66.02.82.04s.27.02.36.02h.53c.1,0,.21,0,.35.02.2-.01.36-.02.5-.02h.74c.11,0,.23,0,.35-.02.12-.01.32-.02.61-.04v.22c-.26.04-.51.12-.75.26-.25.14-.37.35-.37.64,0,.21.08.52.25.95.17.42.36.86.57,1.31.21.45.43.88.63,1.28.21.4.36.68.44.85.12-.23.3-.55.53-.96.23-.41.46-.84.69-1.28.23-.44.42-.86.59-1.25.17-.39.25-.69.25-.88,0-.35-.1-.59-.3-.7s-.45-.18-.74-.22v-.22c.23.02.52.04.86.06.34.01.64.02.9.02s.54,0,.8-.02.53-.03.8-.06v.22c-.16.01-.32.05-.48.12s-.32.18-.49.33c-.17.15-.34.36-.51.62s-.36.58-.56.97c-.43.81-.86,1.6-1.29,2.37-.43.77-.82,1.58-1.18,2.43h-.66c-.39-.88-.82-1.79-1.28-2.71-.46-.92-.87-1.81-1.24-2.66-.16-.35-.38-.67-.66-.96-.28-.28-.63-.45-1.05-.51v-.22Z"/><path class="cls-1" d="M231.42,70.91c0,.64.08,1.16.25,1.58.17.42.37.75.62.99.25.25.52.42.81.51.29.1.55.15.8.15.51,0,.98-.08,1.4-.25.42-.17.8-.43,1.16-.78l.31.29c-.5.54-1.02.95-1.54,1.23-.53.28-1.16.42-1.89.42-.53,0-1-.1-1.42-.31-.42-.21-.77-.48-1.07-.83-.29-.34-.52-.74-.67-1.18s-.23-.89-.23-1.36.08-.92.23-1.36c.15-.44.38-.83.67-1.18.29-.34.65-.62,1.07-.83.42-.21.89-.31,1.42-.31.97,0,1.75.26,2.33.79.59.53.95,1.33,1.08,2.41h-5.33ZM235,70.36c-.04-.33-.09-.63-.15-.89-.06-.26-.16-.48-.29-.66-.13-.18-.31-.31-.53-.4-.22-.09-.5-.14-.85-.14-.26,0-.49.06-.71.19-.21.13-.4.29-.55.5s-.27.43-.35.68c-.08.25-.12.49-.12.73h3.55Z"/><path class="cls-1" d="M236.89,74.63c.42-.07.73-.17.96-.3.22-.13.33-.4.33-.8v-4.26c0-.37-.13-.59-.38-.68-.25-.09-.54-.13-.87-.13v-.22l2.68-.4v1.05c.15-.1.32-.23.5-.39.19-.16.39-.32.61-.47.21-.15.43-.28.65-.4.22-.11.44-.17.64-.17.48,0,.84.13,1.08.4.24.26.37.63.4,1.09l-1.47.77c.02-.09.05-.17.07-.27s.04-.21.04-.36c0-.17-.06-.33-.18-.49-.12-.15-.29-.23-.5-.23-.17,0-.34.04-.51.13s-.34.19-.5.32c-.16.13-.31.27-.45.41-.14.15-.27.28-.38.39v3.9c0,.4.12.67.35.8.23.13.58.23,1.05.3v.22c-.42-.02-.83-.04-1.24-.06-.41-.01-.82-.02-1.24-.02-.28,0-.55,0-.82.02-.26.01-.54.03-.82.06v-.22Z"/><path class="cls-1" d="M243.85,72.44h.26c.17.26.36.51.58.75.21.25.45.47.71.66.26.2.53.36.83.48s.61.18.94.18c.16,0,.32-.02.49-.05.17-.03.31-.08.45-.16.13-.07.25-.17.33-.29.09-.12.13-.28.13-.46,0-.31-.11-.56-.34-.75s-.51-.37-.84-.51c-.33-.15-.7-.29-1.09-.41s-.76-.28-1.09-.46c-.33-.18-.61-.4-.84-.65s-.34-.59-.34-.99c0-.66.21-1.17.62-1.53.41-.35.93-.53,1.55-.53.46,0,.92.06,1.35.18.43.12.88.2,1.35.22l.11,1.95h-.24c-.12-.23-.28-.46-.46-.67s-.39-.4-.62-.57-.47-.3-.73-.4c-.26-.1-.52-.16-.79-.16-.31,0-.58.07-.83.2-.25.14-.37.38-.37.74,0,.26.11.47.34.63.23.17.5.32.84.46.33.14.7.28,1.09.41.4.13.76.3,1.09.49.33.19.61.42.84.7.23.28.34.62.34,1.02,0,.43-.07.78-.21,1.06-.14.28-.33.49-.58.65-.25.16-.53.27-.86.34-.32.07-.67.1-1.04.1-.29,0-.58-.02-.84-.06-.27-.04-.52-.09-.76-.16-.24-.06-.46-.12-.67-.17-.21-.05-.39-.09-.55-.11l-.15-2.13Z"/><path class="cls-1" d="M251.15,70.2c0-.29,0-.55-.03-.78s-.07-.42-.17-.57c-.09-.15-.23-.28-.41-.38-.18-.1-.43-.17-.75-.2v-.26l2.79-.18v5.4c0,.31.02.55.07.73.05.18.13.31.25.4s.27.16.45.19c.18.04.41.06.68.07v.22c-.43-.02-.86-.04-1.3-.06-.44-.01-.87-.02-1.3-.02-.28,0-.56,0-.83.02-.27.01-.54.03-.83.06v-.22c.25-.01.45-.04.62-.07.17-.04.31-.1.42-.19s.19-.23.24-.4c.05-.18.07-.42.07-.73v-3.03ZM251.68,62.42c.27,0,.5.1.69.3.19.2.28.44.28.71s-.09.51-.28.71c-.19.2-.42.3-.69.3s-.5-.1-.69-.3c-.19-.2-.29-.44-.29-.71s.09-.51.29-.71c.19-.2.42-.3.69-.3Z"/><path class="cls-1" d="M253.46,68.58v-.29c.39-.01.73-.11,1.01-.29.28-.18.53-.42.73-.7.21-.28.38-.59.52-.94.14-.34.27-.67.38-.99h.26v2.67h2.52v.55h-2.52v4.28c0,.16,0,.32.03.47.02.15.06.29.11.41.06.12.13.22.24.29.1.07.25.11.43.11.37,0,.67-.08.92-.24s.49-.36.74-.61l.17.18c-.21.18-.41.37-.61.56-.2.19-.4.36-.62.51-.21.15-.45.28-.7.37-.25.09-.52.14-.82.14-.51,0-.86-.16-1.05-.47-.18-.31-.28-.68-.28-1.11v-4.91h-1.47Z"/><path class="cls-1" d="M258.89,67.94c.37.04.71.06,1.02.06.31,0,.66,0,1.04,0s.74,0,1.12,0c.38,0,.75-.03,1.12-.06v.22c-.27.02-.53.1-.77.24s-.37.36-.37.66c0,.25.08.57.24.98.16.41.35.85.56,1.32.21.47.43.95.66,1.44.23.49.41.94.54,1.36.06-.12.16-.32.29-.61.13-.28.28-.6.44-.96.17-.36.33-.74.5-1.13.17-.39.32-.76.46-1.1.14-.34.26-.64.35-.9.09-.26.14-.43.14-.51,0-.15-.03-.26-.1-.35-.07-.09-.15-.16-.25-.21-.1-.06-.21-.1-.35-.13-.13-.03-.26-.06-.39-.1v-.22c.28.04.56.06.85.06.28,0,.57,0,.86,0s.56,0,.83,0c.27,0,.54-.03.83-.06v.22c-.34.05-.68.26-1,.63-.32.37-.62.8-.9,1.28-.28.48-.52.95-.73,1.41s-.37.8-.48,1.02c-.51,1.07-.98,1.98-1.4,2.74-.42.76-.79,1.39-1.13,1.9s-.64.91-.92,1.2-.54.52-.79.67c-.25.15-.5.25-.74.29-.24.04-.49.06-.74.06-.22,0-.44-.03-.65-.09-.21-.06-.4-.16-.57-.28-.17-.13-.3-.29-.4-.49-.1-.2-.16-.43-.16-.7,0-.25.09-.47.27-.66.18-.2.39-.29.63-.29.28,0,.51.07.68.21.17.14.26.36.26.65,0,.21-.05.38-.15.52-.1.14-.15.24-.15.3,0,.07.09.12.27.14s.35.03.52.03c.37,0,.73-.15,1.08-.45s.67-.64.95-1.03c.28-.39.5-.75.67-1.1.17-.35.26-.57.26-.67,0-.04-.04-.16-.13-.38-.09-.21-.2-.49-.35-.83-.15-.34-.31-.71-.5-1.13s-.37-.83-.55-1.24c-.18-.41-.37-.81-.55-1.19-.18-.39-.34-.71-.48-.98-.12-.28-.23-.51-.31-.68-.09-.17-.19-.31-.31-.41-.12-.1-.27-.19-.44-.25-.17-.06-.4-.13-.68-.2v-.22Z"/><path class="cls-1" d="M271.83,68.58v-.29c.39-.01.73-.11,1.01-.29.28-.18.53-.42.73-.7.21-.28.38-.59.52-.94.14-.34.27-.67.38-.99h.26v2.67h2.52v.55h-2.52v4.28c0,.16,0,.32.03.47.02.15.06.29.11.41.06.12.13.22.24.29.1.07.25.11.43.11.37,0,.67-.08.92-.24s.49-.36.74-.61l.17.18c-.21.18-.41.37-.61.56-.2.19-.4.36-.62.51-.21.15-.45.28-.7.37-.25.09-.52.14-.82.14-.51,0-.86-.16-1.05-.47-.18-.31-.28-.68-.28-1.11v-4.91h-1.47Z"/><path class="cls-1" d="M286.23,74.85c-.36-.02-.73-.04-1.14-.06-.4-.01-.82-.02-1.23-.02-.28,0-.55,0-.82.02-.26.01-.52.03-.76.06v-.22c.39-.07.7-.17.91-.3.21-.13.32-.4.32-.8v-2.96c0-.62-.13-1.11-.39-1.45-.26-.34-.69-.51-1.28-.51-.21,0-.42.03-.64.09-.22.06-.42.14-.61.25s-.34.22-.46.34c-.12.12-.18.24-.18.35v3.9c0,.4.12.67.35.8.23.13.58.23,1.05.3v.22c-.42-.02-.83-.04-1.24-.06-.41-.01-.82-.02-1.24-.02-.28,0-.55,0-.82.02-.26.01-.54.03-.82.06v-.22c.42-.07.74-.17.96-.3.22-.13.33-.4.33-.8v-9.37c0-.44-.02-.79-.06-1.04-.04-.25-.12-.44-.22-.57-.1-.13-.25-.21-.42-.25-.18-.04-.4-.06-.67-.07v-.22l2.81-.31v7.11c.33-.26.71-.5,1.14-.74.43-.23.84-.35,1.23-.35.34,0,.67.04.98.13.31.09.59.23.84.42.25.2.44.46.59.79.15.33.22.74.22,1.23v3.23c0,.4.11.67.33.8.22.13.54.23.96.3v.22Z"/><path class="cls-1" d="M286.64,74.63c.42-.07.73-.17.96-.3.22-.13.33-.4.33-.8v-4.26c0-.37-.13-.59-.38-.68-.25-.09-.54-.13-.87-.13v-.22l2.68-.4v1.05c.15-.1.32-.23.5-.39.19-.16.39-.32.61-.47.21-.15.43-.28.65-.4.22-.11.44-.17.64-.17.48,0,.84.13,1.08.4.24.26.37.63.4,1.09l-1.47.77c.02-.09.05-.17.07-.27s.04-.21.04-.36c0-.17-.06-.33-.18-.49-.12-.15-.29-.23-.5-.23-.17,0-.34.04-.51.13s-.34.19-.5.32c-.16.13-.31.27-.45.41-.14.15-.27.28-.38.39v3.9c0,.4.12.67.35.8.23.13.58.23,1.05.3v.22c-.42-.02-.83-.04-1.24-.06-.41-.01-.82-.02-1.24-.02-.28,0-.55,0-.82.02-.26.01-.54.03-.82.06v-.22Z"/><path class="cls-1" d="M297.3,67.72c.59,0,1.12.09,1.61.27.48.18.9.43,1.25.74.35.32.62.7.81,1.16.19.45.29.96.29,1.51s-.09,1.05-.29,1.51c-.19.45-.46.84-.81,1.16-.35.32-.77.57-1.25.74-.48.18-1.02.27-1.61.27s-1.12-.09-1.61-.27c-.48-.18-.9-.43-1.25-.74-.35-.32-.62-.7-.81-1.16-.19-.45-.29-.96-.29-1.51s.09-1.05.29-1.51c.19-.45.46-.84.81-1.16.35-.32.77-.57,1.25-.74.48-.18,1.02-.27,1.61-.27ZM296.97,68.27c-.34,0-.64.09-.89.26-.25.17-.46.4-.62.67-.17.28-.29.59-.37.94-.08.35-.12.7-.12,1.04,0,.39.05.78.16,1.18.1.39.27.75.49,1.08.22.32.5.59.83.79.33.2.73.3,1.19.3.34,0,.64-.09.89-.26.25-.17.46-.4.62-.67.17-.28.29-.58.37-.93.08-.34.12-.69.12-1.05,0-.38-.05-.77-.17-1.17-.11-.4-.28-.76-.5-1.08-.22-.32-.5-.59-.83-.79-.33-.2-.72-.3-1.18-.3Z"/><path class="cls-1" d="M304,72.53c0,.51.13.91.39,1.19s.65.42,1.17.42c.39,0,.78-.09,1.17-.28s.67-.39.85-.6v-3.88c0-.16-.01-.31-.04-.44-.03-.13-.09-.25-.18-.36-.1-.1-.25-.2-.44-.28-.2-.08-.46-.14-.79-.19v-.2l2.88-.2v5.64c0,.47.12.77.36.93s.57.24,1,.27v.18c-.47.02-.93.04-1.41.06-.47.01-.93.03-1.39.06v-.96c-.43.32-.88.59-1.35.83s-.98.35-1.53.35c-.59,0-1.09-.17-1.51-.5-.42-.33-.62-.84-.62-1.53v-3.8c0-.37-.1-.62-.3-.75s-.56-.23-1.08-.29v-.24l2.81-.24v4.81Z"/><path class="cls-1" d="M318.12,69.5c.05-.18.07-.39.07-.61,0-.13-.06-.24-.18-.3-.12-.07-.27-.1-.44-.1-.1,0-.21.03-.35.09-.13.06-.24.11-.31.15.1.26.17.5.23.74.05.23.08.49.08.77,0,.33-.06.64-.18.92-.12.28-.3.53-.53.74-.23.21-.53.38-.88.51s-.76.18-1.21.18c-.61,0-1.18-.15-1.69-.44-.21.12-.41.27-.6.43-.19.17-.29.39-.29.67s.1.47.3.57.58.15,1.13.15c.12,0,.27,0,.45-.02.18-.01.36-.02.56-.04s.39-.02.59-.04c.2-.01.38-.02.55-.02.42,0,.8.03,1.16.1.35.07.66.19.9.36.25.17.44.41.58.72.14.31.21.7.21,1.18,0,.58-.13,1.06-.4,1.46-.26.4-.6.72-1.01.97-.41.25-.87.43-1.37.55-.5.12-1,.17-1.49.17-.38,0-.77-.04-1.18-.13-.4-.09-.77-.22-1.1-.41-.33-.19-.6-.44-.82-.76-.21-.32-.32-.71-.32-1.18,0-.36.08-.69.23-.99.15-.31.36-.58.62-.83-.37-.28-.55-.68-.55-1.19s.13-.9.4-1.24c.27-.34.61-.6,1.05-.78-.25-.17-.43-.4-.55-.7-.12-.29-.18-.62-.18-.97s.06-.68.19-.98c.13-.3.31-.56.54-.78.23-.22.51-.39.84-.51.32-.12.68-.18,1.08-.18.43,0,.84.05,1.23.14.39.09.76.27,1.1.54.28-.13.57-.27.85-.4.29-.13.59-.2.91-.2.22,0,.41.07.57.22.16.15.24.28.24.4v.44c0,.12-.01.22-.04.29l-.99.35ZM314.5,78.23c.26,0,.57-.02.93-.06s.71-.13,1.03-.25c.33-.12.6-.29.84-.51.23-.22.35-.51.35-.86,0-.53-.21-.89-.62-1.09-.42-.2-1.03-.3-1.84-.3-.89,0-1.59,0-2.09.03-.5.02-.92.03-1.27.03-.1.16-.17.35-.21.56-.04.21-.06.43-.06.63,0,.36.1.65.3.88.2.23.45.42.75.56.3.14.62.24.96.3.34.06.66.09.94.09ZM312.98,70.14c0,.26.03.5.09.74.06.23.15.44.26.62.12.18.26.33.45.44s.4.17.64.17.46-.05.64-.17.33-.26.45-.44c.12-.18.2-.39.26-.62.06-.23.09-.48.09-.74s-.03-.5-.09-.73c-.06-.23-.15-.44-.26-.62s-.26-.32-.45-.43-.4-.17-.64-.17-.46.05-.64.17-.33.25-.45.43c-.12.18-.2.38-.26.62-.06.23-.09.48-.09.73Z"/><path class="cls-1" d="M328,74.85c-.36-.02-.73-.04-1.14-.06-.4-.01-.82-.02-1.23-.02-.28,0-.55,0-.82.02-.26.01-.52.03-.76.06v-.22c.39-.07.7-.17.91-.3.21-.13.32-.4.32-.8v-2.96c0-.62-.13-1.11-.39-1.45-.26-.34-.69-.51-1.28-.51-.21,0-.42.03-.64.09-.22.06-.42.14-.61.25s-.34.22-.46.34c-.12.12-.18.24-.18.35v3.9c0,.4.12.67.35.8.23.13.58.23,1.05.3v.22c-.42-.02-.83-.04-1.24-.06-.41-.01-.82-.02-1.24-.02-.28,0-.55,0-.82.02-.26.01-.54.03-.82.06v-.22c.42-.07.74-.17.96-.3.22-.13.33-.4.33-.8v-9.37c0-.44-.02-.79-.06-1.04-.04-.25-.12-.44-.22-.57-.1-.13-.25-.21-.42-.25-.18-.04-.4-.06-.67-.07v-.22l2.81-.31v7.11c.33-.26.71-.5,1.14-.74.43-.23.84-.35,1.23-.35.34,0,.67.04.98.13.31.09.59.23.84.42.25.2.44.46.59.79.15.33.22.74.22,1.23v3.23c0,.4.11.67.33.8.22.13.54.23.96.3v.22Z"/><path class="cls-1" d="M332.89,74.63c.44-.04.78-.1,1.03-.2.24-.1.43-.25.56-.46.13-.21.21-.48.24-.82s.05-.76.05-1.28v-6.14c0-.51-.02-.94-.05-1.28-.03-.34-.11-.61-.24-.82-.13-.21-.32-.36-.58-.46-.26-.1-.61-.17-1.05-.2v-.22c.51.02,1.01.04,1.5.06.48.01.98.02,1.5.02.4,0,.81,0,1.21-.02s.8-.03,1.19-.06v.22c-.43.04-.77.1-1.01.2-.25.1-.43.25-.55.46-.12.21-.2.48-.23.82-.03.34-.05.76-.05,1.28v6.14c0,.51.02.94.05,1.28s.11.61.24.82c.13.21.32.36.58.46.26.1.61.17,1.07.2v.22c-.47-.02-.93-.04-1.4-.06-.47-.01-.93-.02-1.4-.02s-.9,0-1.34.02c-.44.01-.88.03-1.32.06v-.22Z"/><path class="cls-1" d="M341.77,74.63c.44-.04.78-.1,1.03-.2s.43-.25.56-.46c.13-.21.21-.48.24-.82.03-.34.05-.76.05-1.28v-8.53c-.65,0-1.19.02-1.63.07-.44.05-.81.17-1.13.38-.32.2-.6.51-.84.93-.24.42-.47.99-.71,1.71l-.24-.07.26-3.6c.51.02,1.02.04,1.53.06.5.01,1.01.02,1.53.02h4.32c.49,0,.97,0,1.45-.02s.96-.03,1.45-.06l.26,3.6-.24.07c-.23-.72-.47-1.29-.71-1.71s-.52-.73-.84-.93c-.32-.2-.7-.33-1.15-.38-.45-.05-1-.07-1.66-.07v8.53c0,.51.02.94.05,1.28.03.34.11.61.24.82.13.21.32.36.58.46.26.1.61.17,1.07.2v.22c-.47-.02-.93-.04-1.4-.06-.47-.01-.93-.02-1.4-.02s-.9,0-1.34.02c-.44.01-.88.03-1.32.06v-.22Z"/><path class="cls-1" d="M350.5,72.82c.28,0,.52.1.73.29.2.2.3.44.3.73s-.1.54-.3.74-.44.29-.73.29-.52-.1-.73-.29-.3-.44-.3-.74.1-.54.3-.73c.2-.2.44-.29.73-.29Z"/><polygon class="cls-12" points="53.91 76.45 52.72 72.81 51.53 69.15 50.35 65.51 49.17 61.88 47.99 58.24 46.81 54.61 45.63 50.97 44.44 47.32 43.26 43.69 42.08 40.06 40.91 43.69 39.73 47.31 38.54 50.98 37.36 54.62 36.17 58.25 34.99 61.89 33.81 65.53 32.63 69.17 31.44 72.81 30.26 76.45 29.08 80.09 55.09 80.09 55.09 80.09 53.91 76.45"/><polygon class="cls-8" points="84.17 40.06 80.34 40.06 76.52 40.06 72.67 40.06 68.84 40.06 65.02 40.06 61.2 40.06 57.38 40.06 53.55 40.06 49.72 40.06 45.9 40.06 42.08 40.06 45.18 42.31 48.27 44.56 51.37 46.81 54.46 49.06 57.56 51.31 60.65 53.56 63.75 55.8 66.85 58.05 69.94 60.3 73.04 62.55 76.13 64.8 84.17 40.06 84.17 40.06"/><polygon class="cls-14" points="39 42.3 35.92 44.54 32.8 46.81 29.71 49.06 26.61 51.31 23.52 53.55 20.42 55.8 17.33 58.05 14.22 60.31 11.13 62.55 8.04 64.8 29.08 80.09 29.08 80.09 30.26 76.45 31.44 72.81 32.63 69.17 33.81 65.53 34.99 61.89 36.17 58.25 37.36 54.62 38.54 50.98 39.73 47.31 40.91 43.69 42.08 40.06 39 42.3"/><polygon class="cls-6" points="38.27 40.06 34.45 40.06 30.62 40.06 26.79 40.06 22.97 40.06 19.15 40.06 15.32 40.06 11.5 40.06 7.65 40.06 3.82 40.06 0 40.06 8.04 64.8 8.04 64.8 11.13 62.55 14.22 60.31 17.33 58.05 20.42 55.8 23.52 53.55 26.61 51.31 29.71 49.06 32.8 46.81 35.92 44.54 39 42.3 42.08 40.06 38.27 40.06"/><polygon class="cls-10" points="73.04 62.55 69.94 60.3 66.85 58.05 63.75 55.8 60.65 53.56 57.56 51.31 54.46 49.06 51.37 46.81 48.27 44.56 45.18 42.31 42.08 40.06 43.26 43.69 44.44 47.32 45.63 50.97 46.81 54.61 47.99 58.24 49.17 61.88 50.35 65.51 51.53 69.15 52.72 72.81 53.91 76.45 55.09 80.09 76.13 64.8 76.13 64.8 73.04 62.55"/><polygon class="cls-13" points="76.13 15.33 76.13 15.33 73.04 17.57 69.94 19.82 66.84 22.08 63.75 24.32 60.65 26.57 57.56 28.82 54.46 31.07 51.37 33.32 48.25 35.59 45.17 37.82 42.08 40.06 45.9 40.06 49.72 40.06 53.55 40.06 57.38 40.06 61.2 40.06 65.02 40.06 68.84 40.06 72.67 40.06 76.52 40.06 80.34 40.06 84.17 40.06 76.13 15.33"/><polygon class="cls-9" points="40.9 36.43 39.73 32.8 38.54 29.16 37.36 25.52 36.18 21.88 35 18.25 33.81 14.61 32.63 10.98 31.44 7.31 30.26 3.68 29.08 .04 8.04 15.33 8.04 15.33 11.13 17.58 14.23 19.82 17.32 22.07 20.42 24.32 23.51 26.57 26.61 28.82 29.7 31.07 32.8 33.32 35.89 35.57 38.99 37.81 42.08 40.06 40.9 36.43"/><polygon class="cls-11" points="38.99 37.81 35.89 35.57 32.8 33.32 29.7 31.07 26.61 28.82 23.51 26.57 20.42 24.32 17.32 22.07 14.23 19.82 11.13 17.58 8.04 15.33 0 40.06 0 40.06 3.82 40.06 7.65 40.06 11.5 40.06 15.32 40.06 19.15 40.06 22.97 40.06 26.79 40.06 30.62 40.06 34.45 40.06 38.27 40.06 42.08 40.06 38.99 37.81"/><polygon class="cls-7" points="29.08 .04 29.08 .04 30.26 3.68 31.44 7.31 32.63 10.98 33.81 14.61 35 18.25 36.18 21.88 37.36 25.52 38.54 29.16 39.73 32.8 40.9 36.43 42.08 40.06 43.26 36.44 44.44 32.82 45.63 29.15 46.81 25.51 47.99 21.87 49.18 18.24 50.36 14.6 51.54 10.96 52.73 7.31 53.91 3.67 55.09 .04 29.08 .04"/><polygon class="cls-3" points="55.09 .04 55.09 .04 53.91 3.67 52.73 7.31 51.54 10.96 50.36 14.6 49.18 18.24 47.99 21.87 46.81 25.51 45.63 29.15 44.44 32.82 43.26 36.44 42.08 40.06 45.17 37.82 48.25 35.59 51.37 33.32 54.46 31.07 57.56 28.82 60.65 26.57 63.75 24.32 66.84 22.08 69.94 19.82 73.04 17.57 76.13 15.33 55.09 .04"/><polygon class="cls-5" points="50.14 15.26 42.07 40.07 16.14 40.06 8.08 15.3 29.1 0 50.14 15.26"/><polygon class="cls-5" points="84.14 40.06 76.13 64.79 50.14 64.82 42.08 40.1 63.1 24.8 84.14 40.06"/><polygon class="cls-5" points="63.15 55.33 55.14 80.06 29.14 80.09 21.08 55.37 42.1 40.07 63.15 55.33"/><polygon class="cls-5" points="76.1 15.31 68.09 40.05 42.09 40.07 34.04 15.36 55.05 .05 76.1 15.31"/><polygon class="cls-4" points="42.07 40.04 34.06 64.77 8.06 64.79 0 40.08 21.02 24.77 42.07 40.04"/><path class="cls-1" d="M102.85,48.35c1.67-.13,2.97-.35,3.9-.7.93-.34,1.63-.86,2.12-1.58.49-.71.79-1.64.91-2.79.11-1.14.16-2.61.16-4.37l-.03-29.08c-2.46,0-4.52.09-6.17.26-1.64.16-3.06.6-4.28,1.28-1.21.71-2.26,1.76-3.17,3.17-.9,1.42-1.79,3.36-2.67,5.83l-.91-.23.96-12.28c1.95.06,3.88.13,5.78.16,1.91.04,3.83.06,5.79.05l16.35-.02c1.86,0,3.71,0,5.52-.06,1.8-.03,3.65-.1,5.49-.18l1,12.29-.92.23c-.86-2.46-1.76-4.4-2.67-5.83-.91-1.4-1.97-2.47-3.17-3.16-1.22-.68-2.67-1.11-4.37-1.28-1.7-.16-3.8-.25-6.3-.25l.03,29.09c0,1.76.06,3.23.18,4.36.11,1.15.41,2.1.91,2.79.49.72,1.21,1.24,2.19,1.57.97.35,2.32.57,4.04.7v.75c-1.76-.09-3.52-.16-5.29-.18-1.77-.06-3.53-.07-5.29-.06-1.72,0-3.42.01-5.09.07-1.67.03-3.34.1-5.01.2v-.76Z"/><path class="cls-1" d="M128.76,35.64c0,2.19.3,3.98.9,5.39.6,1.42,1.36,2.58,2.26,3.4.91.83,1.88,1.42,2.92,1.75,1.04.34,2,.5,2.89.5,1.84,0,3.52-.29,5.03-.85,1.51-.57,2.89-1.46,4.17-2.67l1.13,1c-1.8,1.84-3.67,3.24-5.56,4.2-1.9.96-4.19,1.47-6.82,1.48-1.91,0-3.6-.36-5.12-1.08-1.49-.69-2.78-1.63-3.85-2.83-1.05-1.14-1.85-2.48-2.41-4-.57-1.5-.83-3.05-.84-4.63,0-1.58.26-3.14.83-4.64.54-1.51,1.34-2.84,2.4-4.04,1.06-1.17,2.34-2.1,3.84-2.82,1.51-.7,3.2-1.07,5.12-1.07,3.48,0,6.28.92,8.4,2.69,2.12,1.79,3.43,4.53,3.92,8.2l-19.23.02ZM141.69,33.77c-.13-1.14-.31-2.16-.54-3.05-.22-.9-.58-1.65-1.07-2.26-.49-.6-1.12-1.05-1.93-1.36-.8-.33-1.82-.46-3.05-.47-.93,0-1.79.21-2.55.66-.77.44-1.43,1-2,1.69-.54.68-.96,1.46-1.25,2.31-.3.86-.43,1.68-.43,2.49h12.81Z"/><path class="cls-1" d="M149.56,26.48l9.66-1.39v3.32c1.2-.88,2.56-1.71,4.1-2.51,1.55-.79,3.02-1.19,4.43-1.19,1.24,0,2.42.15,3.54.44,1.13.28,2.13.76,3,1.44.89.66,1.59,1.56,2.12,2.7.53,1.13.8,2.52.8,4.19v11.05c.01,1.37.41,2.27,1.21,2.71.79.46,1.94.8,3.45,1.04v.75c-1.28-.09-2.66-.16-4.1-.18-1.46-.05-2.93-.06-4.43-.06-1.02,0-2,.02-2.95.08-.96.02-1.87.1-2.75.19v-.75c1.4-.25,2.5-.6,3.27-1.04.77-.45,1.15-1.35,1.15-2.72v-10.11c-.01-2.13-.48-3.79-1.44-4.95-.95-1.16-2.48-1.74-4.59-1.74-.75,0-1.53.11-2.32.32-.79.21-1.52.48-2.18.84-.66.35-1.21.74-1.66,1.17-.43.42-.66.81-.66,1.19l.02,13.3c0,1.37.43,2.27,1.27,2.71.83.45,2.09.79,3.76,1.04v.76c-1.49-.09-2.98-.16-4.46-.19-1.48-.05-2.98-.06-4.47-.06-1.02,0-2.01.02-2.95.07-.94.02-1.93.1-2.95.19v-.75c1.5-.25,2.65-.6,3.45-1.05.79-.43,1.19-1.34,1.19-2.71l-.02-14.56c0-1.24-.47-2.02-1.37-2.32-.9-.29-1.95-.44-3.14-.43v-.76Z"/><path class="cls-1" d="M199.14,39.89c0,1.68.09,2.99.3,3.91.17.96.56,1.72,1.15,2.25.58.54,1.42.95,2.54,1.24,1.11.32,2.61.61,4.52.95v.75c-2-.08-3.96-.16-5.92-.18-1.96-.06-3.92-.06-5.92-.07-1.72,0-3.42.02-5.11.08-1.71.02-3.42.1-5.13.19v-.74c1.66-.14,2.98-.36,3.93-.7.96-.34,1.69-.87,2.2-1.57.51-.72.83-1.66.97-2.81.14-1.13.21-2.59.2-4.35l-.02-20.92c0-1.76-.07-3.21-.22-4.37-.14-1.14-.46-2.08-.98-2.8-.51-.72-1.24-1.22-2.2-1.55-.95-.33-2.27-.56-3.93-.69v-.74c.64.03,1.51.06,2.58.11,1.07.04,2.17.06,3.32.09,1.12.02,2.22.02,3.26.02,1.05,0,1.89-.01,2.54,0h11.9c2.37-.01,4.45-.04,6.28-.1,1.8-.06,3.71-.11,5.71-.14-.08.86-.16,1.73-.2,2.6-.05.84-.08,1.69-.08,2.53,0,1.09.03,2.16.08,3.24.04,1.06.12,2.12.2,3.22h-1.12c-.75-2.37-1.71-4.23-2.9-5.54-1.18-1.32-2.58-2.27-4.18-2.89-1.61-.6-3.43-.95-5.47-1.08-2.05-.13-1.07-.18-3.48-.17-.79,0-1.58.02-2.36.07-.81.05-1.63.07-2.52.07v15.51s5.59,0,5.59,0c2.8,0,4.95-.52,6.48-1.57,1.54-1.06,2.77-2.77,3.69-5.15h.83c-.13,2.83-.2,5.68-.19,8.52,0,1.51,0,2.91.04,4.17.02,1.28.08,2.65.17,4.11h-.83c-.47-1.55-.95-2.84-1.47-3.86-.52-1.01-1.13-1.85-1.85-2.47-.72-.64-1.6-1.1-2.62-1.38-1.02-.3-2.28-.5-3.77-.63-.41-.04-.85-.05-1.32-.09-.47-.02-.97-.05-1.47-.04h-3.28s.02,12.98.02,12.98Z"/><path class="cls-1" d="M226.81,33.11c0-1.01-.03-1.9-.09-2.68-.07-.76-.25-1.41-.57-1.93-.3-.53-.78-.95-1.4-1.28-.64-.34-1.49-.59-2.59-.68v-.9s9.53-.62,9.53-.62l.02,18.42c0,1.06.1,1.87.26,2.47.17.62.46,1.09.84,1.4.41.32.93.54,1.54.66.62.12,1.4.17,2.33.25v.75c-1.46-.09-2.94-.16-4.43-.18-1.48-.05-2.96-.07-4.42-.07-.96.01-1.9.02-2.82.07-.92.03-1.86.11-2.82.19v-.75c.84-.08,1.54-.13,2.13-.26.59-.12,1.07-.35,1.45-.67.38-.31.65-.77.83-1.39.15-.6.23-1.41.23-2.46l-.02-10.34Z"/><path class="cls-1" d="M234.34,25.4c1.34.04,2.28.08,2.79.12.53.03.93.04,1.22.05h1.02c.21,0,.48,0,.81,0,.33,0,.73.03,1.19.06.67-.04,1.24-.06,1.68-.06.46,0,.85,0,1.14,0h1.38c.37,0,.76-.02,1.18-.06.42-.04,1.11-.08,2.08-.12v.75c-.9.12-1.74.44-2.58.89-.83.47-1.25,1.2-1.24,2.2-.01.71.28,1.78.85,3.23.56,1.42,1.2,2.91,1.94,4.47.73,1.55,1.46,2.99,2.16,4.36.72,1.36,1.22,2.33,1.51,2.91.42-.79,1.02-1.9,1.82-3.3.79-1.39,1.56-2.84,2.34-4.35.78-1.51,1.44-2.93,2-4.27.56-1.33.85-2.33.85-2.99,0-1.22-.35-2.02-1.04-2.4-.69-.36-1.54-.62-2.54-.74v-.75c.79.09,1.79.14,2.94.17,1.18.06,2.2.06,3.08.06.92,0,1.84,0,2.72-.07.91-.03,1.81-.08,2.73-.19v.76c-.54.05-1.07.19-1.62.42-.54.22-1.1.61-1.66,1.13-.56.52-1.15,1.21-1.75,2.1-.6.86-1.24,1.98-1.9,3.32-1.48,2.76-2.93,5.47-4.39,8.09-1.46,2.64-2.8,5.41-4.01,8.29h-2.26c-1.33-3.03-2.79-6.08-4.36-9.25-1.58-3.15-2.99-6.17-4.24-9.06-.56-1.21-1.3-2.28-2.27-3.25-.96-.96-2.15-1.54-3.58-1.75v-.75Z"/><path class="cls-1" d="M269.93,35.48c0,2.19.31,4,.91,5.39.59,1.42,1.34,2.58,2.25,3.39.92.84,1.88,1.42,2.91,1.75,1.04.34,2.02.51,2.9.51,1.86,0,3.54-.29,5.04-.85,1.5-.56,2.9-1.46,4.18-2.67l1.12,1.01c-1.81,1.83-3.67,3.23-5.56,4.2-1.91.96-4.18,1.47-6.83,1.47-1.9,0-3.61-.36-5.11-1.07-1.48-.7-2.78-1.64-3.84-2.83-1.07-1.13-1.88-2.48-2.43-4-.55-1.5-.83-3.05-.82-4.63,0-1.59.27-3.15.81-4.65.55-1.49,1.36-2.84,2.42-4.03,1.06-1.17,2.34-2.11,3.84-2.82,1.49-.71,3.2-1.06,5.11-1.06,3.47,0,6.29.91,8.41,2.69,2.13,1.79,3.43,4.52,3.92,8.19l-19.22.02ZM282.87,33.61c-.15-1.14-.33-2.15-.54-3.04-.22-.91-.57-1.66-1.06-2.27-.49-.6-1.13-1.05-1.93-1.36-.8-.32-1.81-.47-3.06-.46-.93,0-1.79.21-2.55.65-.78.43-1.46,1.01-2,1.69-.55.69-.97,1.46-1.26,2.32-.29.85-.42,1.68-.42,2.49h12.82Z"/><polygon class="cls-1" points="225.59 20.73 223.92 15.58 228.28 12.43 232.65 15.57 230.98 20.72 225.59 20.73"/><polygon class="cls-1" points="373.76 48.89 372.55 45.13 375.74 42.81 378.92 45.12 377.7 48.88 373.76 48.89"/><line class="cls-2" x1="93.34" y1="57.19" x2="379.64" y2="57.19"/><path class="cls-1" d="M313.71,9.12c-2.75,0-3.52,1.71-3.52,3.54l-.35,31.98c0,1.83,1.13,3.54,3.24,3.54v1.06c-1.48,0-3.59-.24-5.99-.24-2.11,0-4.23.24-5.63.24v-1.06c1.97,0,3.1-1.71,3.1-3.54l-.35-31.98c0-1.83-.77-3.54-3.52-3.54v-1.06c2.18,0,4.3.24,6.41.24,2.39,0,4.51-.24,6.62-.24v1.06Z"/><path class="cls-1" d="M322.45,28.12c3.17-1.71,6.27-3.72,10.71-3.72,5.35,0,8.73,3.25,8.73,7.38v14.81c0,.89.78,1.3,2.04,1.77v.88c-1.62,0-3.24-.24-4.86-.24s-3.24.24-4.93.24v-.88c1.06-.29,2.82-.71,2.82-1.77v-5.78c0-3.19-.21-7.91-.49-9.09-.77-3.13-3.59-4.37-6.9-4.37-2.82,0-5.42,1.48-7.11,2.6,0,2.66-.14,7.14-.14,11.21v5.43c0,.94.84,1.24,2.11,1.77v.88c-1.62,0-3.24-.24-4.86-.24s-3.24.24-4.86.24v-.88c1.06-.29,2.68-.71,2.68-1.77v-7.79c0-3.25-.21-8.44-.49-9.15-.28-.77-.84-1-3.03-1v-.89c2.96-.83,5.49-1.77,7.47-3.36h1.06l.07,3.72Z"/><path class="cls-1" d="M370.97,30.77h-1.06c-.92-3.19-5.35-4.72-8.88-4.72-6.48,0-10.28,4.54-10.28,9.85,0,6.43,4.65,10.98,12.54,10.98,3.17,0,6.06-1.24,7.82-3.07l.92.41-2.68,4.31c-.28.47-4.93,1.3-8.1,1.3-9.02,0-16.13-4.37-16.13-12.75s7.11-12.69,16.13-12.69c3.52,0,6.83.77,9.72,1.48v4.9Z"/></g></svg>