<svg xmlns="http://www.w3.org/2000/svg" width="50" height="39.474" viewBox="0 0 50 39.474"><g opacity="0.1"><path d="M10.939,39.474a9.805,9.805,0,0,1-5.754-1.865,10.536,10.536,0,0,1-3.636-4.687,1.775,1.775,0,0,0-.087-.187,2.864,2.864,0,0,1-.194-.449A31.556,31.556,0,0,1,.12,20.61,25.638,25.638,0,0,1,12.771.387,2.6,2.6,0,0,1,14.128,0a2.68,2.68,0,0,1,2.32,1.387,2.88,2.88,0,0,1-.958,3.841A20.194,20.194,0,0,0,6.441,16.3,1.813,1.813,0,0,0,6.8,18.059a1.647,1.647,0,0,0,1.235.565,1.611,1.611,0,0,0,.412-.054,9.784,9.784,0,0,1,2.5-.324A10.407,10.407,0,0,1,21.1,28.86,10.407,10.407,0,0,1,10.939,39.474Z" transform="translate(0 0)"/><path d="M10.939,39.474a9.805,9.805,0,0,1-5.754-1.865,10.535,10.535,0,0,1-3.636-4.687,1.761,1.761,0,0,0-.087-.187,2.871,2.871,0,0,1-.194-.449A31.536,31.536,0,0,1,.12,20.61,25.638,25.638,0,0,1,12.771.387,2.6,2.6,0,0,1,14.128,0a2.68,2.68,0,0,1,2.32,1.387,2.9,2.9,0,0,1,.283,2.128,2.779,2.779,0,0,1-1.241,1.713A20.2,20.2,0,0,0,6.441,16.3,1.813,1.813,0,0,0,6.8,18.059a1.648,1.648,0,0,0,1.235.565,1.61,1.61,0,0,0,.412-.054,9.784,9.784,0,0,1,2.5-.324A10.407,10.407,0,0,1,21.1,28.86,10.407,10.407,0,0,1,10.939,39.474Z" transform="translate(28.899 0)"/></g></svg>